<svg width="59" height="45" viewBox="0 0 59 45" fill="none" xmlns="http://www.w3.org/2000/svg">
<circle cx="36.5" cy="22.5" r="22.5" fill="white"/>
<g clip-path="url(#clip0_1041_5057)">
<path d="M7.13451 36.9911C7.23743 36.9224 7.34412 36.8627 7.45312 36.8096V42H14.1328V38.4897C14.5306 38.5404 14.9327 38.5674 15.3386 38.5674C16.4855 38.5674 17.6075 38.3624 18.6602 37.9675V42H25.3398V37.9275C26.4172 38.3488 27.5652 38.5674 28.7351 38.5674C29.0902 38.5674 29.4433 38.5471 29.793 38.5071V42H36.4727V36.76C36.6211 36.8241 36.7661 36.9007 36.9041 36.9928C37.6604 37.4958 38.6128 37.9232 39.5861 38.196L41 38.5929V31.6308L40.4808 31.3032C39.2448 30.5233 37.8718 30.0601 36.4727 29.9081V25.6269C36.6217 25.6916 36.7663 25.7681 36.9041 25.86C37.6604 26.363 38.6128 26.7904 39.5861 27.0635L41 27.4601V20.4977L40.4808 20.1701C39.2927 19.4207 37.9014 18.9452 36.4727 18.7852V14.4202C37.0609 14.6739 37.7361 15.3375 39.5861 15.8562L41 16.2531V9.2907L40.4808 8.96309C39.2448 8.1835 37.8718 7.71992 36.4727 7.5683V4H29.793V9.32491C28.9693 9.68005 28.0137 9.6041 27.2478 9.09355C26.6479 8.69347 26.0087 8.36731 25.3398 8.11595V4H18.6602V8.15857C18.0313 8.40413 17.4292 8.71608 16.863 9.09355C16.0671 9.6241 14.9921 9.68295 14.1328 9.27301V4H7.45312V7.59352C6.07196 7.76747 4.72037 8.24989 3.50446 9.04398L3 9.37332V16.2722L4.40291 15.8941C5.37065 15.6332 6.28969 15.2151 7.13451 14.6513C7.23743 14.5826 7.34412 14.5228 7.45312 14.4698V18.7988C6.0508 18.9757 4.70297 19.4682 3.50446 20.251L3 20.5804V27.4792L4.40291 27.1012C5.37065 26.8402 6.28969 26.4219 7.1348 25.8583C7.23714 25.7899 7.34383 25.7296 7.45312 25.6762V29.9334C6.07225 30.1073 4.72037 30.5897 3.50475 31.3838L3 31.7132V38.612L4.40291 38.234C5.37065 37.9731 6.28969 37.5547 7.13451 36.9911ZM11.9062 39.7734H9.67969V36.7598C9.82755 36.8235 9.97163 36.8995 10.1091 36.9911C10.6761 37.3692 11.2786 37.6811 11.9062 37.9255V39.7734ZM18.6602 30.4984C18.0313 30.744 17.4292 31.0559 16.863 31.4334C16.0671 31.9639 14.9921 32.0228 14.1328 31.6129V27.3577C14.5222 27.4064 14.9141 27.4317 15.3061 27.4317C16.4487 27.4317 17.5901 27.2267 18.6602 26.8286V30.4984ZM23.1133 39.7734H20.8867V25.6768C21.5889 25.3356 22.4001 25.3193 23.1133 25.6269V39.7734ZM34.2461 39.7734H32.0195V37.9696C32.6855 37.7191 33.3256 37.3923 33.9275 36.9911C34.0304 36.9224 34.1371 36.8627 34.2461 36.8096V39.7734ZM38.7734 32.8882V35.5067C38.5464 35.3922 38.3331 35.269 38.1385 35.1397C36.4845 34.0363 34.3467 34.0357 32.6924 35.1385C31.5125 35.9251 30.1441 36.3408 28.7351 36.3408C27.5444 36.3408 26.3833 36.0428 25.3398 35.4763V32.8894C25.57 33.0091 25.795 33.1407 26.0127 33.286C27.6664 34.3885 29.8037 34.3885 31.4574 33.286C33.6512 31.8236 36.4619 31.6862 38.7734 32.8882ZM25.3398 30.4558V26.7947C26.4172 27.216 27.5652 27.4346 28.7351 27.4346C29.0891 27.4346 29.4422 27.4134 29.793 27.3731V31.6647C28.9693 32.0199 28.0137 31.9439 27.2478 31.4334C26.6479 31.0333 26.0087 30.7072 25.3398 30.4558ZM32.0195 30.4978V15.6297C32.6855 15.3792 33.3256 15.0525 33.9275 14.6513C34.0304 14.5826 34.1371 14.5228 34.2461 14.4698V29.9299C33.4883 30.0276 32.7403 30.2163 32.0195 30.4978ZM38.7734 21.7571V24.3739C38.5464 24.2594 38.3331 24.1362 38.1385 24.0069C37.6259 23.6651 37.0623 23.4256 36.4727 23.2951V21.0268C37.2792 21.1434 38.0629 21.3921 38.7734 21.7571ZM32.0195 6.22656H34.2461V7.59033C33.4883 7.68774 32.7403 7.87648 32.0195 8.15799V6.22656ZM25.3398 10.5495C25.57 10.6693 25.795 10.8009 26.0127 10.9461C27.6664 12.0487 29.8037 12.0487 31.4574 10.9461C33.6512 9.48349 36.4619 9.34607 38.7734 10.5484V13.1669C38.5464 13.0524 38.3328 12.9292 38.1385 12.7999C36.4845 11.6961 34.3467 11.6956 32.6924 12.7987C31.5125 13.5852 30.1441 14.001 28.7351 14.001C27.5455 14.001 26.3833 13.7029 25.3398 13.1364V10.5495ZM25.3398 15.5868C26.4178 16.0084 27.5661 16.2275 28.7351 16.2275C29.0902 16.2275 29.4433 16.2072 29.793 16.1672V20.5319C28.9693 20.8871 28.0137 20.8111 27.2478 20.3006C26.6416 19.8964 26.0011 19.5706 25.3398 19.3218V15.5868ZM20.8867 6.22656H23.1133V18.7843C22.3734 18.6997 21.626 18.7052 20.8867 18.7985V6.22656ZM26.0127 22.1532C26.8399 22.7043 27.7876 22.98 28.7354 22.98C29.0899 22.98 29.4448 22.9414 29.793 22.8643V25.128C29.443 25.1805 29.0896 25.208 28.7351 25.208C27.3261 25.208 25.9577 24.7923 24.7777 24.0057C23.124 22.9032 20.9867 22.9032 19.3331 24.0057C17.8197 25.0146 15.9268 25.4072 14.1328 25.11V22.8327C15.4702 23.16 16.927 22.9339 18.0983 22.1532C20.502 20.5505 23.6087 20.5505 26.0127 22.1532ZM14.1328 20.48V16.1545C15.6511 16.3496 17.2077 16.1748 18.6602 15.6286V19.3644C18.0383 19.6077 17.4353 19.9191 16.863 20.3006C16.0671 20.8311 14.9921 20.89 14.1328 20.48ZM9.67969 6.22656H11.9062V8.11624C11.1838 7.84488 10.4358 7.66513 9.67969 7.57903V6.22656ZM5.89917 12.799C5.68086 12.9445 5.45647 13.0773 5.22656 13.1967V10.6072C7.53749 9.35448 10.3639 9.46899 12.5791 10.9461C14.2296 12.0464 16.4475 12.0464 18.098 10.9461C18.2807 10.8244 18.4685 10.7124 18.6602 10.6084V13.1953C16.3486 14.3976 13.5379 14.261 11.3441 12.7987C9.69041 11.6961 7.55315 11.6961 5.89917 12.799ZM11.9062 15.5868V30.4561C11.1838 30.1847 10.4358 30.005 9.67969 29.9189V14.4199C9.82755 14.4837 9.97163 14.5596 10.1091 14.6513C10.6799 15.0319 11.2829 15.3433 11.9062 15.5868ZM5.89917 24.006C5.68086 24.1516 5.45647 24.2843 5.22656 24.4038V21.8139C5.92439 21.4353 6.67615 21.1773 7.45312 21.0477V23.3215C6.90344 23.4566 6.37782 23.6868 5.89917 24.006ZM5.22656 32.9471C7.53749 31.6943 10.3639 31.8088 12.5791 33.286C14.2296 34.3862 16.4475 34.3862 18.098 33.286C18.2807 33.1642 18.4685 33.0523 18.6602 32.9482V35.534C16.3652 36.7177 13.5156 36.5861 11.3441 35.1385C9.69041 34.036 7.55315 34.036 5.89917 35.1388C5.68086 35.2844 5.45647 35.4171 5.22656 35.5366V32.9471Z" fill="#114965"/>
</g>
<defs>
<clipPath id="clip0_1041_5057">
<rect width="38" height="38" fill="white" transform="translate(3 4)"/>
</clipPath>
</defs>
</svg>
