<svg width="59" height="45" viewBox="0 0 59 45" fill="none" xmlns="http://www.w3.org/2000/svg">
<circle cx="36.5" cy="22.5" r="22.5" fill="white"/>
<g clip-path="url(#clip0_1042_5061)">
<path d="M38 12.6787C38 11.7712 37.3668 11.1991 36.9478 10.8205C36.8812 10.7603 36.7962 10.6835 36.7257 10.6142C36.7962 10.5449 36.8812 10.4681 36.9477 10.4081C38.9093 8.8324 37.7471 7.09687 36.3386 5.66267C34.9007 4.25051 33.1677 3.09425 31.5933 5.05348C31.5331 5.12005 31.4563 5.20511 31.387 5.27562C31.3177 5.20511 31.2409 5.12005 31.1809 5.05355C30.0368 3.65126 28.6055 3.65453 27.4643 5.05355C27.4041 5.12005 27.3273 5.20511 27.2581 5.27554C27.1888 5.20511 27.112 5.12005 27.0518 5.05348C25.9078 3.65119 24.4764 3.6546 23.3353 5.05355C23.2751 5.12005 23.1983 5.20511 23.1292 5.27554C23.0598 5.20511 22.983 5.12005 22.9229 5.05355C21.779 3.65126 20.3476 3.6546 19.2064 5.05348C19.1462 5.12005 19.0694 5.20511 19.0001 5.27562C18.9309 5.20511 18.854 5.12005 18.7939 5.05355C17.6499 3.65126 16.2185 3.65453 15.0774 5.05355C15.0173 5.12005 14.9405 5.20511 14.8711 5.27554C14.8018 5.20511 14.725 5.12005 14.6649 5.05355C13.5209 3.65126 12.0895 3.6546 10.9483 5.05355C10.8882 5.12005 10.8114 5.20511 10.7421 5.27554C10.6727 5.20511 10.5959 5.12005 10.5358 5.05355C9.39186 3.65126 7.96033 3.65453 6.81929 5.05355C6.75918 5.12005 6.68228 5.20511 6.61304 5.27562C6.54379 5.20511 6.4669 5.12005 6.40679 5.05355C4.83112 3.09195 3.09559 4.25422 1.66139 5.66267C1.04092 6.28306 0 7.48318 0 8.5497C0.0290937 9.62253 0.739219 10.0932 1.27426 10.6142C1.20375 10.6835 1.1187 10.7603 1.0522 10.8203C-0.35009 11.9644 -0.34675 13.3957 1.0522 14.5369C1.1187 14.5971 1.20375 14.6739 1.27426 14.7431C1.20375 14.8124 1.1187 14.8893 1.0522 14.9494C-0.35009 16.0934 -0.346676 17.5248 1.0522 18.6659C1.1187 18.7261 1.20375 18.8029 1.27426 18.872C0.739664 19.3922 0.0287227 19.8647 0 20.9368C0.0290937 22.0095 0.739293 22.4803 1.27434 23.0013C1.20383 23.0706 1.11877 23.1474 1.05227 23.2075C-0.350016 24.3515 -0.346676 25.7828 1.05227 26.924C1.11877 26.9842 1.20383 27.061 1.27434 27.1302C1.20383 27.1995 1.11885 27.2764 1.05227 27.3364C-0.350016 28.4804 -0.346676 29.9118 1.05227 31.053C1.11877 31.1132 1.20383 31.19 1.27434 31.2592C0.739664 31.7792 0.0287227 32.2518 0 33.3238C0.0290937 34.3965 0.739293 34.8674 1.27434 35.3883C1.20383 35.4576 1.11877 35.5344 1.05227 35.5945C-0.909254 37.1702 0.252938 38.9057 1.66139 40.3399C3.09945 41.7521 4.83238 42.9084 6.40679 40.949C6.4669 40.8825 6.54372 40.7974 6.61304 40.7269C6.68236 40.7974 6.75918 40.8825 6.81929 40.949C7.96323 42.3513 9.39468 42.348 10.5358 40.949C10.5959 40.8825 10.6728 40.7974 10.7421 40.7269C10.8113 40.7974 10.8881 40.8825 10.9482 40.949C12.0922 42.3513 13.5236 42.348 14.6648 40.949C14.7249 40.8825 14.8017 40.7974 14.8711 40.727C14.9404 40.7974 15.0172 40.8825 15.0773 40.949C16.2213 42.3513 17.6528 42.348 18.7938 40.949C18.8539 40.8825 18.9308 40.7974 19.0001 40.7269C19.0694 40.7974 19.1462 40.8825 19.2063 40.949C20.3503 42.3513 21.7816 42.348 22.9228 40.949C22.983 40.8825 23.0598 40.7974 23.129 40.727C23.1983 40.7974 23.2751 40.8825 23.3352 40.949C24.4792 42.3513 25.9107 42.348 27.0518 40.949C27.112 40.8825 27.1888 40.7974 27.258 40.727C27.3273 40.7974 27.4041 40.8825 27.4642 40.949C28.6081 42.3513 30.0395 42.3479 31.1807 40.9491C31.2409 40.8825 31.3177 40.7974 31.387 40.7269C31.4563 40.7974 31.5331 40.8825 31.5931 40.949C33.1688 42.9105 34.9043 41.7484 36.3385 40.3399C37.7507 38.902 38.907 37.169 36.9477 35.5946C36.8812 35.5344 36.7961 35.4576 36.7256 35.3883C36.7961 35.319 36.8812 35.2422 36.9477 35.1821C38.3499 34.038 38.3467 32.6067 36.9477 31.4656C36.8812 31.4054 36.7961 31.3285 36.7257 31.2594C36.7961 31.1901 36.8812 31.1132 36.9477 31.0531C38.35 29.9091 38.3466 28.4777 36.9477 27.3366C36.8812 27.2764 36.7961 27.1996 36.7257 27.1304C36.7961 27.0611 36.8812 26.9843 36.9477 26.9242C38.3499 25.7802 38.3467 24.3489 36.9477 23.2077C36.8812 23.1475 36.7961 23.0707 36.7256 23.0014C36.7961 22.9321 36.8812 22.8553 36.9477 22.7952C38.3499 21.6512 38.3467 20.2199 36.9477 19.0787C36.8812 19.0186 36.7961 18.9417 36.7257 18.8725C36.7961 18.8032 36.8812 18.7264 36.9477 18.6663C38.3499 17.5223 38.3467 16.0908 36.9477 14.9497C36.8812 14.8895 36.7961 14.8127 36.7257 14.7436C36.7961 14.6742 36.8812 14.5974 36.9477 14.5373C37.3668 14.1584 38 13.5863 38 12.6787V12.6787ZM35.455 12.4725C35.5215 12.5327 35.6066 12.6095 35.677 12.6787C35.6066 12.748 35.5215 12.8249 35.455 12.885C34.0528 14.029 34.056 15.4603 35.455 16.6015C35.5215 16.6617 35.6066 16.7385 35.6771 16.8077C35.6066 16.877 35.5215 16.9539 35.455 17.0139C34.0527 18.158 34.056 19.5893 35.455 20.7305C35.5215 20.7906 35.6066 20.8674 35.6771 20.9367C35.6066 21.006 35.5215 21.0828 35.455 21.1428C34.0527 22.2869 34.056 23.7182 35.455 24.8594C35.5215 24.9196 35.6066 24.9964 35.677 25.0656C35.6066 25.1349 35.5215 25.2118 35.455 25.2718C34.0528 26.4159 34.056 27.8472 35.455 28.9884C35.5215 29.0485 35.6066 29.1254 35.677 29.1946C35.6066 29.2639 35.5215 29.3407 35.455 29.4008C34.0528 30.5447 34.056 31.9761 35.455 33.1173C35.5215 33.1775 35.6066 33.2543 35.6771 33.3235C35.6066 33.3929 35.5215 33.4697 35.455 33.5297C34.0527 34.6737 34.056 36.1052 35.455 37.2463C35.5408 37.3239 35.6575 37.4293 35.734 37.5104C35.4691 38.1458 34.1413 39.472 33.5093 39.7349C33.4282 39.6585 33.3229 39.5418 33.2453 39.456C32.1012 38.0537 30.6699 38.057 29.5287 39.456C29.4686 39.5225 29.3917 39.6076 29.3226 39.678C29.2532 39.6076 29.1764 39.5225 29.1163 39.456C27.9723 38.0538 26.541 38.057 25.3998 39.4559C25.3396 39.5225 25.2628 39.6076 25.1936 39.6781C25.1242 39.6076 25.0474 39.5225 24.9874 39.456C23.8433 38.0537 22.412 38.057 21.2708 39.456C21.2107 39.5225 21.1339 39.6076 21.0646 39.6781C20.9953 39.6076 20.9185 39.5225 20.8584 39.456C19.7144 38.0537 18.283 38.057 17.1419 39.456C17.0817 39.5225 17.0049 39.6076 16.9356 39.678C16.8663 39.6076 16.7895 39.5225 16.7294 39.456C15.5853 38.0537 14.154 38.0571 13.0128 39.456C12.9527 39.5225 12.8758 39.6076 12.8066 39.678C12.7373 39.6076 12.6605 39.5225 12.6003 39.456C11.4563 38.0537 10.0249 38.0571 8.88376 39.456C8.82364 39.5225 8.74683 39.6076 8.67751 39.678C8.60819 39.6076 8.53137 39.5225 8.47133 39.456C7.32725 38.0537 5.89594 38.057 4.75475 39.456C4.67719 39.5418 4.57188 39.6585 4.49075 39.7349C3.85529 39.47 2.52908 38.1423 2.2662 37.5103C2.34264 37.4292 2.45931 37.3239 2.54511 37.2463C3.9474 36.1023 3.94406 34.6709 2.54511 33.5297C2.47861 33.4695 2.39355 33.3927 2.32305 33.3235C2.39355 33.2542 2.47854 33.1773 2.54511 33.1173C2.96415 32.7386 3.59731 32.1665 3.59731 31.259C3.56821 30.1862 2.85802 29.7155 2.32305 29.1945C2.39355 29.1252 2.47861 29.0484 2.54511 28.9884C3.9474 27.8443 3.94406 26.413 2.54511 25.2718C2.47861 25.2117 2.39355 25.1348 2.32305 25.0656C2.39355 24.9963 2.47854 24.9195 2.54511 24.8594C3.9474 23.7154 3.94406 22.284 2.54511 21.1428C2.47861 21.0826 2.39355 21.0058 2.32305 20.9367C2.39355 20.8673 2.47854 20.7904 2.54511 20.7304C3.94725 19.5864 3.94406 18.1551 2.54511 17.0139C2.47861 16.9538 2.39355 16.8769 2.32305 16.8076C2.39355 16.7384 2.47854 16.6616 2.54511 16.6015C2.96415 16.2228 3.59731 15.6507 3.59731 14.7432C3.56821 13.6703 2.85802 13.1997 2.32305 12.6787C2.39355 12.6094 2.47861 12.5326 2.54511 12.4725C3.9474 11.3285 3.94406 9.89714 2.54511 8.75596C2.45924 8.6784 2.34264 8.57301 2.2662 8.49188C2.53116 7.8565 3.85886 6.53028 4.49075 6.26733C4.57188 6.34377 4.67727 6.46044 4.75482 6.54624C5.89883 7.94853 7.33021 7.94519 8.4714 6.54624C8.53152 6.47974 8.60834 6.39469 8.67766 6.32425C8.74698 6.39469 8.82379 6.47974 8.88391 6.54624C10.0278 7.94853 11.4593 7.94526 12.6004 6.54631C12.6605 6.47974 12.7374 6.39469 12.8067 6.32418C12.8759 6.39469 12.9528 6.47974 13.0129 6.54624C14.1569 7.94853 15.5883 7.94526 16.7294 6.54624C16.7895 6.47974 16.8664 6.39469 16.9357 6.32425C17.005 6.39469 17.0818 6.47974 17.1419 6.54624C18.2859 7.9486 19.7173 7.94519 20.8585 6.54624C20.9187 6.47974 20.9955 6.39469 21.0647 6.32425C21.134 6.39469 21.2109 6.47974 21.2709 6.54624C22.415 7.94846 23.8463 7.94526 24.9874 6.54631C25.0476 6.47974 25.1245 6.39469 25.1937 6.32425C25.2629 6.39469 25.3398 6.47974 25.3999 6.54624C26.5438 7.94846 27.9752 7.94526 29.1164 6.54631C29.1766 6.47974 29.2534 6.39469 29.3226 6.32418C29.392 6.39469 29.4688 6.47974 29.5288 6.54624C30.6728 7.94853 32.1043 7.94526 33.2454 6.54624C33.323 6.46044 33.4283 6.34377 33.5095 6.26733C34.1449 6.53221 35.4711 7.85999 35.734 8.49196C35.6576 8.57308 35.5409 8.6784 35.4551 8.75596C34.0527 9.89996 34.0561 11.3313 35.455 12.4725V12.4725Z" fill="#114965"/>
<path d="M10.8474 12.9282L10.7491 12.8691L10.8473 12.8101C12.0831 12.0035 10.993 10.1896 9.70134 10.9011C9.64523 9.42719 7.53044 9.4283 7.47493 10.9011C6.94805 10.5851 6.26486 10.7556 5.94825 11.2823C5.63148 11.8093 5.80196 12.4932 6.32891 12.81L6.42711 12.869L6.32884 12.9281C5.80189 13.2448 5.63148 13.9288 5.94817 14.4558C6.26664 14.9871 6.95673 15.1501 7.47493 14.837C7.53096 16.311 9.64583 16.3099 9.70134 14.837C10.2195 15.1501 10.9095 14.987 11.228 14.4557C11.5447 13.9288 11.3743 13.2449 10.8474 12.9282V12.9282Z" fill="#114965"/>
<path d="M21.2593 12.9282L21.161 12.8691L21.2592 12.8101C21.7862 12.4933 21.9566 11.8094 21.6399 11.2824C21.3233 10.7558 20.6401 10.5851 20.1133 10.9011C20.0572 9.42719 17.9424 9.4283 17.8869 10.9011C16.594 10.1893 15.5056 12.0044 16.7408 12.81L16.839 12.869L16.7408 12.928C16.2139 13.2448 16.0435 13.9287 16.3602 14.4557C16.6786 14.987 17.3687 15.15 17.8869 14.837C17.9429 16.311 20.0578 16.3099 20.1133 14.837C20.6314 15.1501 21.3216 14.987 21.6399 14.4557C21.9566 13.9288 21.7862 13.2449 21.2593 12.9282V12.9282Z" fill="#114965"/>
<path d="M32.0519 11.2824C31.7353 10.7558 31.0523 10.5851 30.5252 10.9012C30.4691 9.42723 28.3543 9.42834 28.2988 10.9012C27.7718 10.5853 27.0885 10.7558 26.7721 11.2824C26.4553 11.8094 26.6257 12.4934 27.1527 12.8101L27.2509 12.8691L27.1527 12.9281C26.6257 13.2449 26.4554 13.9288 26.7721 14.4558C27.0905 14.9871 27.7806 15.1502 28.2988 14.8371C28.3548 16.3111 30.4697 16.31 30.5252 14.8371C31.0434 15.1502 31.7336 14.9871 32.0519 14.4558C32.3687 13.9288 32.1983 13.2449 31.6713 12.9281L31.5731 12.8691L31.6713 12.8101C32.1982 12.4934 32.3686 11.8094 32.0519 11.2824Z" fill="#114965"/>
<path d="M10.8474 23.059L10.7491 22.9999L10.8473 22.9409C12.0831 22.1344 10.9929 20.3204 9.70134 21.032C9.64523 19.558 7.53044 19.5592 7.47493 21.032C6.94805 20.7159 6.26486 20.8865 5.94825 21.4131C5.63148 21.9402 5.80196 22.6241 6.32891 22.9409L6.42711 22.9999L6.32884 23.0589C5.80189 23.3757 5.63148 24.0596 5.94817 24.5867C6.26664 25.1179 6.95673 25.281 7.47493 24.9679C7.53096 26.4418 9.64582 26.4408 9.70134 24.9679C10.2195 25.281 10.9095 25.1179 11.228 24.5866C11.5447 24.0597 11.3743 23.3758 10.8474 23.059V23.059Z" fill="#114965"/>
<path d="M21.2593 23.059L21.161 22.9999L21.2592 22.9409C21.7863 22.6242 21.9566 21.9402 21.6399 21.4132C21.3233 20.8866 20.6402 20.716 20.1133 21.032C20.0572 19.558 17.9424 19.5592 17.8869 21.032C17.3601 20.7159 16.6767 20.8865 16.3602 21.4131C16.0434 21.9402 16.2139 22.6241 16.7409 22.9409L16.8391 22.9999L16.7409 23.0589C16.2139 23.3756 16.0435 24.0596 16.3602 24.5866C16.6787 25.1178 17.3687 25.2809 17.8869 24.9679C17.9429 26.4418 20.0578 26.4407 20.1133 24.9679C20.6314 25.281 21.3216 25.1178 21.64 24.5866C21.9567 24.0597 21.7863 23.3758 21.2593 23.059V23.059Z" fill="#114965"/>
<path d="M32.0519 21.4133C31.7353 20.8866 31.0523 20.716 30.5252 21.0321C30.4691 19.5581 28.3543 19.5592 28.2988 21.0321C27.7718 20.7161 27.0885 20.8867 26.7721 21.4133C26.4553 21.9403 26.6257 22.6242 27.1527 22.941L27.2509 23.0001L27.1527 23.0591C26.6257 23.3758 26.4554 24.0598 26.7721 24.5868C27.0905 25.118 27.7806 25.2812 28.2988 24.968C28.3548 26.442 30.4697 26.4409 30.5252 24.968C31.0434 25.2812 31.7336 25.118 32.0519 24.5868C32.3687 24.0598 32.1983 23.3758 31.6713 23.0591L31.573 23.0001L31.6712 22.9411C32.1982 22.6243 32.3686 21.9403 32.0519 21.4133V21.4133Z" fill="#114965"/>
<path d="M10.8474 33.1899L10.7491 33.1309L10.8473 33.0719C12.0831 32.2653 10.993 30.4514 9.70134 31.1629C9.64523 29.689 7.53044 29.6901 7.47493 31.1629C6.94805 30.8469 6.26486 31.0173 5.94825 31.5441C5.63148 32.0711 5.80196 32.755 6.32891 33.0718L6.42711 33.1308L6.32884 33.1899C5.80189 33.5066 5.63148 34.1906 5.94817 34.7176C6.26664 35.2488 6.95673 35.4119 7.47493 35.0988C7.53096 36.5728 9.64583 36.5717 9.70134 35.0988C10.2195 35.4119 10.9095 35.2488 11.228 34.7175C11.5447 34.1906 11.3743 33.5067 10.8474 33.1899V33.1899Z" fill="#114965"/>
<path d="M21.2593 33.1899L21.161 33.1309L21.2592 33.0719C21.7862 32.7551 21.9566 32.0712 21.6399 31.5441C21.3233 31.0176 20.6401 30.8469 20.1133 31.1629C20.0572 29.689 17.9424 29.6901 17.8869 31.1629C16.594 30.4511 15.5056 32.2662 16.7408 33.0718L16.839 33.1308L16.7408 33.1898C16.2139 33.5066 16.0435 34.1905 16.3602 34.7175C16.6786 35.2488 17.3687 35.4118 17.8869 35.0988C17.9429 36.5728 20.0578 36.5717 20.1133 35.0988C20.6314 35.4119 21.3216 35.2488 21.6399 34.7175C21.9566 34.1906 21.7862 33.5067 21.2593 33.1899V33.1899Z" fill="#114965"/>
<path d="M32.0519 31.5441C31.7353 31.0175 31.0523 30.8468 30.5252 31.1629C30.4691 29.6889 28.3543 29.69 28.2988 31.1629C27.7718 30.8469 27.0885 31.0175 26.7721 31.5441C26.4553 32.0711 26.6257 32.755 27.1527 33.0718L27.2509 33.1308L27.1527 33.1898C26.6257 33.5066 26.4554 34.1905 26.7721 34.7175C27.0905 35.2488 27.7806 35.4119 28.2988 35.0988C28.3548 36.5728 30.4697 36.5716 30.5252 35.0988C31.0434 35.4119 31.7336 35.2488 32.0519 34.7175C32.3687 34.1905 32.1983 33.5066 31.6713 33.1898L31.5731 33.1308L31.6713 33.0718C32.1982 32.7551 32.3686 32.0711 32.0519 31.5441Z" fill="#114965"/>
</g>
<defs>
<clipPath id="clip0_1042_5061">
<rect width="38" height="38" fill="white" transform="translate(0 4)"/>
</clipPath>
</defs>
</svg>
