<svg width="59" height="45" viewBox="0 0 59 45" fill="none" xmlns="http://www.w3.org/2000/svg">
<circle cx="36.5" cy="22.5" r="22.5" fill="white"/>
<path d="M35.3407 10.2735C36.0919 9.89067 36.6851 9.58824 38 9.58824V7.35294C35.553 7.35294 34.6503 8.21532 33.5294 8.6556V4H31.2941V8.95766C30.2329 8.90513 29.6831 8.62661 29.0072 8.282C28.4179 7.98158 27.7741 7.65351 26.8235 7.47894V4H24.5882V7.38215C23.2059 7.49376 22.3902 7.90908 21.6586 8.28208C21.1612 8.53556 20.7319 8.7532 20.1176 8.87175V4H17.8824V8.8719C17.2675 8.75343 16.838 8.53571 16.3405 8.282C15.6091 7.90916 14.7935 7.49391 13.4118 7.38222V4H11.1765V7.47879C10.2256 7.65336 9.58166 7.98151 8.99222 8.282C8.31649 8.62646 7.76683 8.90506 6.70588 8.95758V4H4.47059V8.65567C3.34959 8.21539 2.44713 7.35294 0 7.35294V9.58824C1.3148 9.58824 1.90797 9.89067 2.65903 10.2735C3.16808 10.533 3.71774 10.8131 4.47059 10.9972V15.5168C3.34959 15.0766 2.44713 14.2141 0 14.2141V16.4494C1.3148 16.4494 1.90797 16.7518 2.65903 17.1347C3.16808 17.3942 3.71774 17.6743 4.47059 17.8584V22.378C3.34996 21.9379 2.44795 21.0752 0 21.0752V23.3105C1.3148 23.3105 1.90797 23.6129 2.65896 23.9958C3.16801 24.2553 3.71774 24.5354 4.47059 24.7195V29.2391C3.34959 28.7988 2.44713 27.9364 0 27.9364V30.1716C1.3148 30.1716 1.90797 30.4741 2.65903 30.8569C3.16808 31.1164 3.71774 31.3966 4.47059 31.5806V36.1002C3.34959 35.66 2.44713 34.7975 0 34.7975V37.0328C1.3148 37.0328 1.90797 37.3352 2.65903 37.7181C3.16808 37.9776 3.71774 38.2577 4.47059 38.4418V42H6.70588V38.6399C9.10853 38.5486 9.89535 37.5885 11.1765 37.2174V42H13.4118V37.072C14.2381 37.1651 14.7334 37.4162 15.3253 37.7179C15.9887 38.0561 16.721 38.4293 17.8824 38.5792V42H20.1176V38.579C21.2784 38.429 22.0105 38.056 22.6738 37.7179C23.2658 37.4161 23.7614 37.165 24.5882 37.0719V42H26.8235V37.2176C28.1047 37.5889 28.8906 38.5487 31.2941 38.6399V42H33.5294V38.4416C34.2822 38.2575 34.8317 37.9775 35.3407 37.718C36.0918 37.3352 36.685 37.0327 38 37.0327V34.7974C35.553 34.7974 34.6503 35.6598 33.5294 36.1001V31.5805C34.2822 31.3964 34.8317 31.1164 35.3407 30.8569C36.0918 30.4741 36.685 30.1716 38 30.1716V27.9364C35.553 27.9364 34.6503 28.7987 33.5294 29.239V24.7194C34.2822 24.5353 34.8317 24.2553 35.3407 23.9958C36.0918 23.6129 36.685 23.3106 38 23.3106V21.0753C35.553 21.0753 34.6503 21.9376 33.5294 22.3779V17.8583C34.2822 17.6743 34.8317 17.3942 35.3407 17.1347C36.0918 16.7519 36.685 16.4495 38 16.4495V14.2142C35.553 14.2142 34.6503 15.0766 33.5294 15.5168V10.9971C34.2822 10.813 34.8317 10.533 35.3407 10.2735V10.2735ZM31.2941 11.1954V15.8187C30.2329 15.7662 29.6831 15.4877 29.0072 15.1432C28.4179 14.8427 27.7741 14.5147 26.8235 14.3401V9.77309C28.1047 10.1445 28.8906 11.1042 31.2941 11.1954ZM24.5882 21.1043C23.2059 21.2159 22.3902 21.6313 21.6586 22.0043C21.1612 22.2578 20.7319 22.4755 20.1176 22.5939V17.9957C21.2784 17.8457 22.0105 17.4728 22.6738 17.1346C23.2658 16.8327 23.7614 16.5817 24.5882 16.4886V21.1043ZM17.8824 22.5941C17.2675 22.4757 16.838 22.258 16.3406 22.0043C15.6091 21.6313 14.7935 21.2161 13.4118 21.1043V16.4886C14.2381 16.5817 14.7334 16.8328 15.3253 17.1345C15.9887 17.4727 16.721 17.8459 17.8824 17.9958V22.5941ZM11.1765 21.201C10.2256 21.3756 9.58166 21.7038 8.99222 22.0043C8.31649 22.3488 7.76683 22.6273 6.70588 22.6798V18.0565C9.10853 17.9651 9.89535 17.0051 11.1765 16.634V21.201ZM11.1765 23.4951V28.0622C10.2256 28.2368 9.58166 28.5648 8.99222 28.8654C8.31649 29.2099 7.76683 29.4885 6.70588 29.541V24.9177C9.10853 24.8263 9.89572 23.8662 11.1765 23.4951ZM13.4118 23.3497C14.2381 23.4429 14.7334 23.6939 15.3253 23.9957C15.9886 24.3339 16.721 24.707 17.8824 24.8569V29.4552C17.2675 29.3368 16.838 29.119 16.3405 28.8653C15.6091 28.4924 14.7935 28.0772 13.4118 27.9655V23.3497ZM20.1176 24.8568C21.2784 24.7068 22.0105 24.3338 22.6738 23.9957C23.2658 23.6938 23.7614 23.4427 24.5882 23.3496V27.9654C23.2059 28.077 22.3902 28.4923 21.6586 28.8653C21.1612 29.1188 20.7319 29.3365 20.1176 29.455V24.8568ZM26.8235 23.4953C28.1047 23.8667 28.8906 24.8264 31.2941 24.9177V29.541C30.2329 29.4885 29.6831 29.2099 29.0072 28.8653C28.4179 28.5649 27.7741 28.2368 26.8235 28.0623V23.4953ZM29.0072 22.0043C28.4179 21.7038 27.7741 21.3758 26.8235 21.2012V16.6343C28.1047 17.0056 28.8906 17.9654 31.2941 18.0566V22.6799C30.2329 22.6274 29.6831 22.3489 29.0072 22.0043ZM22.6738 10.2735C23.2658 9.97166 23.7614 9.72056 24.5882 9.6275V14.2433C23.2059 14.3549 22.3902 14.7702 21.6586 15.1432C21.1612 15.3967 20.7319 15.6144 20.1176 15.7329V11.1345C21.2784 10.9846 22.0105 10.6116 22.6738 10.2735V10.2735ZM15.3253 10.2735C15.9887 10.6117 16.721 10.9848 17.8824 11.1348V15.7331C17.2675 15.6146 16.838 15.3969 16.3405 15.1432C15.6091 14.7703 14.7935 14.3551 13.4118 14.2434V9.62758C14.2381 9.72071 14.7334 9.97174 15.3253 10.2735V10.2735ZM11.1765 9.77295V14.3399C10.2256 14.5145 9.58166 14.8427 8.99222 15.1432C8.31649 15.4876 7.76683 15.7662 6.70588 15.8187V11.1954C9.10853 11.1041 9.89535 10.1441 11.1765 9.77295V9.77295ZM8.99222 35.7265C8.31649 36.071 7.76683 36.3495 6.70588 36.4021V31.7787C9.10853 31.6874 9.89535 30.7273 11.1765 30.3562V34.9232C10.2256 35.0979 9.58166 35.426 8.99222 35.7265ZM16.3405 35.7265C15.6091 35.3536 14.7935 34.9383 13.4118 34.8266V30.2109C14.2381 30.304 14.7334 30.5551 15.3253 30.8568C15.9887 31.195 16.721 31.5682 17.8824 31.7181V36.3164C17.2675 36.1978 16.838 35.9801 16.3405 35.7265V35.7265ZM21.6586 35.7265C21.1612 35.98 20.7319 36.1976 20.1176 36.3162V31.7179C21.2784 31.568 22.0105 31.195 22.6738 30.8568C23.2658 30.555 23.7614 30.3039 24.5882 30.2108V34.8266C23.2059 34.9382 22.3902 35.3535 21.6586 35.7265V35.7265ZM29.0072 35.7265C28.4179 35.426 27.7741 35.098 26.8235 34.9234V30.3564C28.1047 30.7278 28.8906 31.6875 31.2941 31.7787V36.4021C30.2329 36.3496 29.6831 36.071 29.0072 35.7265Z" fill="#114965"/>
</svg>
