<svg width="59" height="45" viewBox="0 0 59 45" fill="none" xmlns="http://www.w3.org/2000/svg">
<circle cx="36.5" cy="22.5" r="22.5" fill="white"/>
<path d="M37.2578 12.3125C37.6677 12.3125 38 11.9801 38 11.5703V8.30469C38 7.89485 37.6677 7.5625 37.2578 7.5625H34.4375V4.74219C34.4375 4.33235 34.1052 4 33.6953 4H30.4297C30.0198 4 29.6875 4.33235 29.6875 4.74219V7.5625H27.9062V4.74219C27.9062 4.33235 27.574 4 27.1641 4H23.8984C23.4885 4 23.1562 4.33235 23.1562 4.74219V7.5625H21.375V4.74219C21.375 4.33235 21.0427 4 20.6328 4H17.3672C16.9573 4 16.625 4.33235 16.625 4.74219V7.5625H14.8438V4.74219C14.8438 4.33235 14.5115 4 14.1016 4H10.8359C10.426 4 10.0938 4.33235 10.0938 4.74219V7.5625H8.3125V4.74219C8.3125 4.33235 7.98022 4 7.57031 4H4.30469C3.89478 4 3.5625 4.33235 3.5625 4.74219V7.5625H0.742188C0.332277 7.5625 0 7.89485 0 8.30469V11.5703C0 11.9801 0.332277 12.3125 0.742188 12.3125H3.5625V14.0938H0.742188C0.332277 14.0938 0 14.4261 0 14.8359V18.1016C0 18.5114 0.332277 18.8438 0.742188 18.8438H3.5625V20.625H0.742188C0.332277 20.625 0 20.9574 0 21.3672V24.6328C0 25.0426 0.332277 25.375 0.742188 25.375H3.5625V27.1562H0.742188C0.332277 27.1562 0 27.4886 0 27.8984V31.1641C0 31.5739 0.332277 31.9062 0.742188 31.9062H3.5625V33.6875H0.742188C0.332277 33.6875 0 34.0199 0 34.4297V37.6953C0 38.1051 0.332277 38.4375 0.742188 38.4375H3.5625V41.2578C3.5625 41.6676 3.89478 42 4.30469 42H7.57031C7.98022 42 8.3125 41.6676 8.3125 41.2578V38.4375H10.0938V41.2578C10.0938 41.6676 10.426 42 10.8359 42H14.1016C14.5115 42 14.8438 41.6676 14.8438 41.2578V38.4375H16.625V41.2578C16.625 41.6676 16.9573 42 17.3672 42H20.6328C21.0427 42 21.375 41.6676 21.375 41.2578V38.4375H23.1562V41.2578C23.1562 41.6676 23.4885 42 23.8984 42H27.1641C27.574 42 27.9062 41.6676 27.9062 41.2578V38.4375H29.6875V41.2578C29.6875 41.6676 30.0198 42 30.4297 42H33.6953C34.1052 42 34.4375 41.6676 34.4375 41.2578V38.4375H37.2578C37.6677 38.4375 38 38.1051 38 37.6953V34.4297C38 34.0199 37.6677 33.6875 37.2578 33.6875H34.4375V31.9062H37.2578C37.6677 31.9062 38 31.5739 38 31.1641V27.8984C38 27.4886 37.6677 27.1562 37.2578 27.1562H34.4375V25.375H37.2578C37.6677 25.375 38 25.0426 38 24.6328V21.3672C38 20.9574 37.6677 20.625 37.2578 20.625H34.4375V18.8438H37.2578C37.6677 18.8438 38 18.5114 38 18.1016V14.8359C38 14.4261 37.6677 14.0938 37.2578 14.0938H34.4375V12.3125H37.2578ZM31.1719 5.48438H32.9531V7.5625H31.1719V5.48438ZM36.5156 9.04688V10.8281H27.9062V9.04688H36.5156ZM27.9062 20.625V18.8438H29.6875V20.625H27.9062ZM27.9062 33.6875V31.9062H29.6875V33.6875H27.9062ZM23.1562 33.6875H21.375V31.9062H23.1562V33.6875ZM14.8438 33.6875V31.9062H16.625V33.6875H14.8438ZM10.0938 33.6875H8.3125V31.9062H10.0938V33.6875ZM10.0938 25.375V27.1562H8.3125V25.375H10.0938ZM10.0938 12.3125V14.0938H8.3125V12.3125H10.0938ZM14.8438 12.3125H16.625V14.0938H14.8438V12.3125ZM23.1562 12.3125V14.0938H21.375V12.3125H23.1562ZM29.6875 15.5781V17.3594H21.375V15.5781H29.6875ZM26.4219 27.1562H24.6406V18.8438H26.4219V27.1562ZM21.375 27.1562V25.375H23.1562V27.1562H21.375ZM16.625 27.1562H14.8438V25.375H16.625V27.1562ZM11.5781 18.8438H13.3594V27.1562H11.5781V18.8438ZM16.625 18.8438V20.625H14.8438V18.8438H16.625ZM14.8438 23.8906V22.1094H23.1562V23.8906H14.8438ZM21.375 18.8438H23.1562V20.625H21.375V18.8438ZM19.8906 20.625H18.1094V12.3125H19.8906V20.625ZM16.625 15.5781V17.3594H8.3125V15.5781H16.625ZM8.3125 18.8438H10.0938V20.625H8.3125V18.8438ZM8.3125 30.4219V28.6406H16.625V30.4219H8.3125ZM18.1094 25.375H19.8906V33.6875H18.1094V25.375ZM21.375 30.4219V28.6406H29.6875V30.4219H21.375ZM29.6875 27.1562H27.9062V25.375H29.6875V27.1562ZM29.6875 14.0938H27.9062V12.3125H29.6875V14.0938ZM24.6406 5.48438H26.4219V14.0938H24.6406V5.48438ZM18.1094 5.48438H19.8906V7.5625H18.1094V5.48438ZM23.1562 9.04688V10.8281H14.8438V9.04688H23.1562ZM11.5781 5.48438H13.3594V14.0938H11.5781V5.48438ZM5.04688 5.48438H6.82812V7.5625H5.04688V5.48438ZM1.48438 9.04688H10.0938V10.8281H1.48438V9.04688ZM1.48438 17.3594V15.5781H3.5625V17.3594H1.48438ZM5.04688 12.3125H6.82812V20.625H5.04688V12.3125ZM1.48438 22.1094H10.0938V23.8906H1.48438V22.1094ZM1.48438 30.4219V28.6406H3.5625V30.4219H1.48438ZM5.04688 25.375H6.82812V33.6875H5.04688V25.375ZM6.82812 40.5156H5.04688V38.4375H6.82812V40.5156ZM1.48438 36.9531V35.1719H10.0938V36.9531H1.48438ZM13.3594 40.5156H11.5781V31.9062H13.3594V40.5156ZM19.8906 40.5156H18.1094V38.4375H19.8906V40.5156ZM14.8438 36.9531V35.1719H23.1562V36.9531H14.8438ZM26.4219 40.5156H24.6406V31.9062H26.4219V40.5156ZM32.9531 40.5156H31.1719V38.4375H32.9531V40.5156ZM36.5156 36.9531H27.9062V35.1719H36.5156V36.9531ZM36.5156 28.6406V30.4219H34.4375V28.6406H36.5156ZM32.9531 33.6875H31.1719V25.375H32.9531V33.6875ZM36.5156 23.8906H27.9062V22.1094H36.5156V23.8906ZM36.5156 15.5781V17.3594H34.4375V15.5781H36.5156ZM32.9531 20.625H31.1719V12.3125H32.9531V20.625Z" fill="#114965"/>
</svg>
