<svg width="53" height="45" viewBox="0 0 53 45" fill="none" xmlns="http://www.w3.org/2000/svg">
<circle cx="30.5" cy="22.5" r="22.5" fill="white"/>
<path d="M37.8867 15.207C38.5015 15.207 39 14.7086 39 14.0938V9.64062C39 9.0258 38.5015 8.52734 37.8867 8.52734H34.4727V5.11328C34.4727 4.49845 33.9742 4 33.3594 4H28.9062C28.2914 4 27.793 4.49845 27.793 5.11328V8.52734H23.3398V5.11328C23.3398 4.49845 22.8414 4 22.2266 4H17.7734C17.1586 4 16.6602 4.49845 16.6602 5.11328V8.52734H12.207V5.11328C12.207 4.49845 11.7086 4 11.0938 4H6.64062C6.0258 4 5.52734 4.49845 5.52734 5.11328V8.52734H2.11328C1.49845 8.52734 1 9.0258 1 9.64062V14.0938C1 14.7086 1.49845 15.207 2.11328 15.207H5.52734V19.6602H2.11328C1.49845 19.6602 1 20.1586 1 20.7734V25.2266C1 25.8414 1.49845 26.3398 2.11328 26.3398H5.52734V30.793H2.11328C1.49845 30.793 1 31.2914 1 31.9062V36.3594C1 36.9742 1.49845 37.4727 2.11328 37.4727H5.52734V40.8867C5.52734 41.5015 6.0258 42 6.64062 42H11.0938C11.7086 42 12.207 41.5015 12.207 40.8867V37.4727H16.6602V40.8867C16.6602 41.5015 17.1586 42 17.7734 42H22.2266C22.8414 42 23.3398 41.5015 23.3398 40.8867V37.4727H27.793V40.8867C27.793 41.5015 28.2914 42 28.9062 42H33.3594C33.9742 42 34.4727 41.5015 34.4727 40.8867V37.4727H37.8867C38.5015 37.4727 39 36.9742 39 36.3594V31.9062C39 31.2914 38.5015 30.793 37.8867 30.793H34.4727V26.3398H37.8867C38.5015 26.3398 39 25.8414 39 25.2266V20.7734C39 20.1586 38.5015 19.6602 37.8867 19.6602H34.4727V15.207H37.8867ZM30.0195 6.22656H32.2461V8.52734H30.0195V6.22656ZM36.7734 10.7539V12.9805H23.3398V10.7539H36.7734ZM23.3398 30.793V26.3398H27.793V30.793H23.3398ZM16.6602 30.793H12.207V26.3398H16.6602V30.793ZM16.6602 15.207V19.6602H12.207V15.207H16.6602ZM12.207 24.1133V21.8867H27.793V24.1133H12.207ZM27.793 19.6602H23.3398V15.207H27.793V19.6602ZM18.8867 6.22656H21.1133V19.6602H18.8867V6.22656ZM7.75391 6.22656H9.98047V8.52734H7.75391V6.22656ZM3.22656 10.7539H16.6602V12.9805H3.22656V10.7539ZM3.22656 24.1133V21.8867H5.52734V24.1133H3.22656ZM7.75391 15.207H9.98047V30.793H7.75391V15.207ZM9.98047 39.7734H7.75391V37.4727H9.98047V39.7734ZM3.22656 35.2461V33.0195H16.6602V35.2461H3.22656ZM21.1133 39.7734H18.8867V26.3398H21.1133V39.7734ZM32.2461 39.7734H30.0195V37.4727H32.2461V39.7734ZM36.7734 35.2461H23.3398V33.0195H36.7734V35.2461ZM36.7734 21.8867V24.1133H34.4727V21.8867H36.7734ZM32.2461 30.793H30.0195V15.207H32.2461V30.793Z" fill="#114965"/>
</svg>
