<svg width="68" height="69" viewBox="0 0 68 69" fill="none" xmlns="http://www.w3.org/2000/svg">
<g filter="url(#filter0_d_1332_5065)">
<circle cx="34" cy="31" r="30" transform="rotate(-179.761 34 31)" fill="url(#paint0_linear_1332_5065)" fill-opacity="0.8"/>
<g clip-path="url(#clip0_1332_5065)">
<path d="M29.5855 32.017L36.3028 38.7882C36.5975 39.0847 37.077 39.0867 37.375 38.7927C37.6722 38.4987 37.6742 38.0192 37.3795 37.7227L31.195 31.4887L37.4305 25.3065C37.7277 25.0125 37.7297 24.533 37.4349 24.2358C37.1402 23.9393 36.6599 23.9373 36.3627 24.2313L29.5892 30.9463C29.2965 31.2373 29.2945 31.7243 29.5855 32.017Z" fill="white"/>
</g>
</g>
<defs>
<filter id="filter0_d_1332_5065" x="0" y="1" width="68" height="68" filterUnits="userSpaceOnUse" color-interpolation-filters="sRGB">
<feFlood flood-opacity="0" result="BackgroundImageFix"/>
<feColorMatrix in="SourceAlpha" type="matrix" values="0 0 0 0 0 0 0 0 0 0 0 0 0 0 0 0 0 0 127 0" result="hardAlpha"/>
<feOffset dy="4"/>
<feGaussianBlur stdDeviation="2"/>
<feComposite in2="hardAlpha" operator="out"/>
<feColorMatrix type="matrix" values="0 0 0 0 0 0 0 0 0 0 0 0 0 0 0 0 0 0 0.25 0"/>
<feBlend mode="normal" in2="BackgroundImageFix" result="effect1_dropShadow_1332_5065"/>
<feBlend mode="normal" in="SourceGraphic" in2="effect1_dropShadow_1332_5065" result="shape"/>
</filter>
<linearGradient id="paint0_linear_1332_5065" x1="3.99997" y1="27.5" x2="65.5" y2="29.5" gradientUnits="userSpaceOnUse">
<stop offset="0.144642" stop-color="#60C0BC"/>
<stop offset="0.508333" stop-color="#4EB5E7"/>
<stop offset="1" stop-color="#7662A7"/>
</linearGradient>
<clipPath id="clip0_1332_5065">
<rect width="15" height="15" fill="white" transform="translate(40.9666 39.0291) rotate(-179.761)"/>
</clipPath>
</defs>
</svg>
