<svg width="57" height="45" viewBox="0 0 57 45" fill="none" xmlns="http://www.w3.org/2000/svg">
<circle cx="34.5" cy="22.5" r="22.5" fill="#D3ECF9"/>
<g clip-path="url(#clip0_1301_5061)">
<path d="M3.8081 32.3865C3.90289 32.3233 4.00116 32.2682 4.10156 32.2194V37H10.2539V33.7668C10.6203 33.8135 10.9906 33.8384 11.3645 33.8384C12.4208 33.8384 13.4542 33.6496 14.4238 33.2859V37H20.5762V33.249C21.5685 33.637 22.6259 33.8384 23.7033 33.8384C24.0305 33.8384 24.3557 33.8197 24.6777 33.7828V37H30.8301V32.1737C30.9668 32.2327 31.1003 32.3032 31.2274 32.3881C31.9241 32.8514 32.8013 33.245 33.6977 33.4963L35 33.8619V27.4494L34.5218 27.1477C33.3834 26.4294 32.1188 26.0027 30.8301 25.8628V21.9195C30.9673 21.9791 31.1006 22.0496 31.2274 22.1342C31.9241 22.5975 32.8013 22.9911 33.6977 23.2427L35 23.608V17.1953L34.5218 16.8935C33.4275 16.2033 32.146 15.7653 30.8301 15.6179V11.5975C31.3719 11.8312 31.9938 12.4424 33.6977 12.9201L35 13.2857V6.87301L34.5218 6.57127C33.3834 5.85323 32.1188 5.42625 30.8301 5.28659V2H24.6777V6.90452C23.9191 7.23163 23.039 7.16167 22.3335 6.69143C21.781 6.32293 21.1922 6.02252 20.5762 5.79101V2H14.4238V5.83026C13.8446 6.05643 13.29 6.34376 12.7685 6.69143C12.0355 7.18009 11.0454 7.2343 10.2539 6.85672V2H4.10156V5.30982C2.82944 5.47004 1.58455 5.91438 0.46463 6.64577L0 6.94911V13.3033L1.29215 12.9551C2.18349 12.7148 3.02998 12.3297 3.8081 11.8104C3.90289 11.7471 4.00116 11.6921 4.10156 11.6432V15.6305C2.80994 15.7934 1.56853 16.2471 0.46463 16.968L0 17.2714V23.6256L1.29215 23.2774C2.18349 23.0371 3.02998 22.6517 3.80836 22.1326C3.90263 22.0696 4.00089 22.0141 4.10156 21.9649V25.886C2.8297 26.0462 1.58455 26.4905 0.464897 27.2219L0 27.5253V33.8795L1.29215 33.5313C2.18349 33.291 3.02998 32.9056 3.8081 32.3865V32.3865ZM8.20312 34.9492H6.15234V32.1735C6.28853 32.2322 6.42124 32.3022 6.54781 32.3865C7.07012 32.7347 7.62501 33.0221 8.20312 33.2472V34.9492ZM14.4238 26.4064C13.8446 26.6326 13.29 26.9199 12.7685 27.2676C12.0355 27.7563 11.0454 27.8105 10.2539 27.4329V23.5137C10.6125 23.5586 10.9735 23.5818 11.3346 23.5818C12.3869 23.5818 13.4382 23.393 14.4238 23.0264V26.4064ZM18.5254 34.9492H16.4746V21.9655C17.1214 21.6512 17.8685 21.6362 18.5254 21.9195V34.9492ZM28.7793 34.9492H26.7285V33.2878C27.3419 33.0571 27.9315 32.7561 28.4858 32.3865C28.5806 32.3233 28.6789 32.2682 28.7793 32.2194V34.9492ZM32.9492 28.6076V31.0194C32.7401 30.9139 32.5436 30.8004 32.3644 30.6813C30.841 29.665 28.872 29.6645 27.3483 30.6802C26.2615 31.4047 25.0011 31.7876 23.7033 31.7876C22.6067 31.7876 21.5372 31.5131 20.5762 30.9913V28.6086C20.7882 28.7189 20.9954 28.8401 21.1959 28.9739C22.7191 29.9894 24.6876 29.9894 26.2107 28.9739C28.2314 27.627 30.8202 27.5005 32.9492 28.6076ZM20.5762 26.3672V22.9951C21.5685 23.3831 22.6259 23.5845 23.7033 23.5845C24.0294 23.5845 24.3546 23.565 24.6777 23.5279V27.4807C23.9191 27.8078 23.039 27.7378 22.3335 27.2676C21.781 26.8991 21.1922 26.5987 20.5762 26.3672ZM26.7285 26.4059V12.7116C27.3419 12.4809 27.9315 12.1799 28.4858 11.8104C28.5806 11.7471 28.6789 11.6921 28.7793 11.6432V25.8828C28.0813 25.9728 27.3923 26.1466 26.7285 26.4059V26.4059ZM32.9492 18.3552V20.7654C32.7401 20.66 32.5436 20.5465 32.3644 20.4274C31.8923 20.1126 31.3732 19.892 30.8301 19.7718V17.6826C31.573 17.7899 32.2947 18.0191 32.9492 18.3552V18.3552ZM26.7285 4.05078H28.7793V5.30688C28.0813 5.39661 27.3923 5.57044 26.7285 5.82973V4.05078ZM20.5762 8.03245C20.7882 8.14273 20.9954 8.26396 21.1959 8.39774C22.7191 9.41325 24.6876 9.41325 26.2107 8.39774C28.2314 7.05058 30.8202 6.92401 32.9492 8.03138V10.4432C32.7401 10.3377 32.5433 10.2242 32.3644 10.1051C30.841 9.08855 28.872 9.08801 27.3483 10.1041C26.2615 10.8285 25.0011 11.2114 23.7033 11.2114C22.6077 11.2114 21.5372 10.9369 20.5762 10.4151V8.03245ZM20.5762 12.6721C21.569 13.0603 22.6267 13.2622 23.7033 13.2622C24.0305 13.2622 24.3557 13.2435 24.6777 13.2067V17.2268C23.9191 17.5539 23.039 17.4839 22.3335 17.0137C21.7751 16.6415 21.1853 16.3413 20.5762 16.1122V12.6721ZM16.4746 4.05078H18.5254V15.6171C17.8439 15.5392 17.1555 15.5442 16.4746 15.6302V4.05078ZM21.1959 18.72C21.9578 19.2276 22.8307 19.4816 23.7036 19.4816C24.0302 19.4816 24.357 19.4461 24.6777 19.375V21.46C24.3554 21.5083 24.0299 21.5337 23.7033 21.5337C22.4056 21.5337 21.1452 21.1508 20.0584 20.4263C18.5353 19.4108 16.5667 19.4108 15.0436 20.4263C13.6497 21.3556 11.9063 21.7171 10.2539 21.4434V19.3459C11.4857 19.6474 12.8275 19.4391 13.9063 18.72C16.1203 17.2439 18.9817 17.2439 21.1959 18.72V18.72ZM10.2539 17.179V13.1949C11.6523 13.3746 13.086 13.2136 14.4238 12.7105V16.1515C13.8511 16.3755 13.2956 16.6623 12.7685 17.0137C12.0355 17.5024 11.0454 17.5566 10.2539 17.179ZM6.15234 4.05078H8.20312V5.79128C7.53769 5.54134 6.84875 5.37578 6.15234 5.29647V4.05078ZM2.67029 10.1043C2.46922 10.2384 2.26254 10.3607 2.05078 10.4707V8.08559C4.17927 6.93176 6.78253 7.03723 8.8229 8.39774C10.3431 9.41112 12.3859 9.41112 13.9061 8.39774C14.0743 8.28559 14.2473 8.18252 14.4238 8.08665V10.4694C12.2948 11.5767 9.70596 11.451 7.68536 10.1041C6.16222 9.08855 4.19369 9.08855 2.67029 10.1043ZM8.20312 12.6721V26.3674C7.53769 26.1175 6.84875 25.952 6.15234 25.8726V11.5973C6.28853 11.656 6.42124 11.726 6.54781 11.8104C7.07359 12.161 7.62901 12.4478 8.20312 12.6721V12.6721ZM2.67029 20.4266C2.46922 20.5606 2.26254 20.6829 2.05078 20.793V18.4076C2.69352 18.0588 3.38593 17.8212 4.10156 17.7018V19.7961C3.59528 19.9206 3.11115 20.1326 2.67029 20.4266V20.4266ZM2.05078 28.6618C4.17927 27.5079 6.78253 27.6134 8.8229 28.9739C10.3431 29.9873 12.3859 29.9873 13.9061 28.9739C14.0743 28.8618 14.2473 28.7587 14.4238 28.6628V31.0445C12.31 32.1347 9.6854 32.0135 7.68536 30.6802C6.16222 29.6647 4.19369 29.6647 2.67029 30.6805C2.46922 30.8145 2.26254 30.9368 2.05078 31.0469V28.6618Z" fill="#114965"/>
</g>
<defs>
<clipPath id="clip0_1301_5061">
<rect width="35" height="35" fill="white" transform="translate(0 2)"/>
</clipPath>
</defs>
</svg>
