<svg width="56" height="45" viewBox="0 0 56 45" fill="none" xmlns="http://www.w3.org/2000/svg">
<circle cx="33.5" cy="22.5" r="22.5" fill="#D3ECF9"/>
<g clip-path="url(#clip0_1301_5083)">
<path d="M40.9254 12.9169C41.6088 12.2231 42 11.2864 42 10.2874C42 8.21811 40.3166 6.53467 38.2472 6.53467C37.1812 6.53467 36.1784 6.98879 35.4756 7.75808C25.8658 6.7007 16.1342 6.7007 6.52436 7.75808C5.82159 6.98879 4.81884 6.53467 3.75277 6.53467C1.68345 6.53467 0 8.2182 0 10.2874C0 11.2864 0.391207 12.2231 1.07461 12.9169C0.223535 18.9476 0.223535 25.0525 1.07461 31.0832C0.391207 31.7769 0 32.7136 0 33.7126C0 35.7819 1.68345 37.4654 3.75277 37.4654C4.81884 37.4654 5.82159 37.0112 6.52436 36.242C16.1342 37.2993 25.8658 37.2993 35.4756 36.242C36.1784 37.0112 37.1812 37.4654 38.2472 37.4654C40.3166 37.4654 42 35.7819 42 33.7126C42 32.7136 41.6088 31.7769 40.9254 31.0832C41.7765 25.0525 41.7765 18.9476 40.9254 12.9169V12.9169ZM38.3912 12.5959C39.3401 18.836 39.3401 25.164 38.3912 31.4041L38.2711 32.1933L38.9429 32.6245C39.3162 32.8642 39.5391 33.2709 39.5391 33.7125C39.5391 34.4249 38.9596 35.0043 38.2472 35.0043C37.7794 35.0043 37.3468 34.7497 37.1181 34.34L36.718 33.623L35.9024 33.7172C26.0139 34.8595 15.9861 34.8595 6.09763 33.7172L5.28199 33.623L4.88193 34.34C4.65322 34.7498 4.22059 35.0043 3.75277 35.0043C3.04041 35.0043 2.46094 34.4249 2.46094 33.7125C2.46094 33.2709 2.68382 32.8642 3.05714 32.6245L3.72889 32.1933L3.60888 31.4041C2.65995 25.164 2.65995 18.836 3.60888 12.5959L3.72889 11.8067L3.05714 11.3754C2.68382 11.1358 2.46094 10.7291 2.46094 10.2874C2.46094 9.57507 3.04041 8.99561 3.75277 8.99561C4.22059 8.99561 4.65322 9.25023 4.88193 9.65998L5.28199 10.3769L6.09763 10.2828C15.9862 9.14047 26.014 9.14047 35.9024 10.2828L36.718 10.3769L37.1181 9.65998C37.3468 9.25015 37.7794 8.99561 38.2472 8.99561C38.9596 8.99561 39.5391 9.57507 39.5391 10.2874C39.5391 10.7291 39.3162 11.1358 38.9429 11.3754L38.2711 11.8067L38.3912 12.5959Z" fill="#114965"/>
<path d="M9.22192 20.7695H11.6829V23.2305H9.22192V20.7695Z" fill="#114965"/>
<path d="M30.3171 20.7695H32.7781V23.2305H30.3171V20.7695Z" fill="#114965"/>
</g>
<defs>
<clipPath id="clip0_1301_5083">
<rect width="42" height="42" fill="white" transform="translate(0 1)"/>
</clipPath>
</defs>
</svg>
