<svg width="56" height="45" viewBox="0 0 56 45" fill="none" xmlns="http://www.w3.org/2000/svg">
<circle cx="33.5" cy="22.5" r="22.5" fill="#D3ECF9"/>
<path d="M32.8359 13.4375H31.7812V8.16406C31.7812 6.4194 30.3619 5 28.6172 5H4.21875V9.21875H3.16406C1.4194 9.21875 0 10.6381 0 12.3828V33.6172C0 35.3619 1.4194 36.7812 3.16406 36.7812H4.21875V41H32.8359C34.5806 41 36 39.5806 36 37.8359V16.6016C36 14.8569 34.5806 13.4375 32.8359 13.4375ZM29.6719 8.16406V26.4158C29.3418 26.2987 28.987 26.2344 28.6172 26.2344H14.7656V7.10938H28.6172C29.1987 7.10938 29.6719 7.58251 29.6719 8.16406ZM10.5469 26.2344V7.10938H12.6562V26.2344H10.5469ZM6.32812 7.10938H8.4375V26.2344H6.32812V7.10938ZM3.16406 11.3281H4.21875V28.3438H28.6172C29.1987 28.3438 29.6719 28.8169 29.6719 29.3984C29.6719 29.98 29.1987 30.4531 28.6172 30.4531H3.16406C2.79429 30.4531 2.43949 30.5175 2.10938 30.6345V12.3828C2.10938 11.8013 2.58251 11.3281 3.16406 11.3281ZM3.16406 34.6719C2.58251 34.6719 2.10938 34.1987 2.10938 33.6172C2.10938 33.0356 2.58251 32.5625 3.16406 32.5625H28.6172C30.3619 32.5625 31.7812 31.1431 31.7812 29.3984V15.5469H32.8359C33.4175 15.5469 33.8906 16.02 33.8906 16.6016V34.8533C33.5605 34.7362 33.2057 34.6719 32.8359 34.6719H3.16406ZM32.8359 38.8906H6.32812V36.7812H32.8359C33.4175 36.7812 33.8906 37.2544 33.8906 37.8359C33.8906 38.4175 33.4175 38.8906 32.8359 38.8906Z" fill="#114965"/>
</svg>
