<svg width="56" height="45" viewBox="0 0 56 45" fill="none" xmlns="http://www.w3.org/2000/svg">
<circle cx="33.5" cy="22.5" r="22.5" fill="#D3ECF9"/>
<path d="M3.98438 5H30.0156C32.2126 5 34 6.78739 34 8.98438V32.0273C34 35.8721 30.8721 39 27.0273 39H2.98828C1.34054 39 0 37.6595 0 36.0117C0 35.2469 0.289066 34.5487 0.76334 34.0195C0.289133 33.4904 0 32.7921 0 32.0273C0 31.2625 0.289066 30.5643 0.76334 30.0352C0.289133 29.506 0 28.8078 0 28.043V8.98438C0 6.78739 1.78739 5 3.98438 5ZM11.9531 10.1514L5.1514 16.9531H11.9531V10.1514ZM1.99219 8.98438V17.295L12.295 6.99219H3.98438C2.88588 6.99219 1.99219 7.88588 1.99219 8.98438ZM1.99219 32.0273C1.99219 32.5766 2.43904 33.0234 2.98828 33.0234H27.0273C27.5766 33.0234 28.0234 32.5766 28.0234 32.0273C28.0234 31.4781 27.5766 31.0312 27.0273 31.0312H2.98828C2.43904 31.0312 1.99219 31.4781 1.99219 32.0273ZM2.98828 29.0391H27.0273C28.6751 29.0391 30.0156 30.3796 30.0156 32.0273C30.0156 33.6751 28.6751 35.0156 27.0273 35.0156H2.98828C2.43904 35.0156 1.99219 35.4625 1.99219 36.0117C1.99219 36.561 2.43904 37.0078 2.98828 37.0078H27.0273C29.7736 37.0078 32.0078 34.7736 32.0078 32.0273C32.0078 29.2811 29.7736 27.0469 27.0273 27.0469H2.98828C2.43904 27.0469 1.99219 27.4937 1.99219 28.043C1.99219 28.5922 2.43904 29.0391 2.98828 29.0391ZM1.99219 25.226C2.30396 25.1154 2.63912 25.0547 2.98828 25.0547H27.0273C28.9766 25.0547 30.7412 25.8591 32.0078 27.1529V8.98438C32.0078 7.88588 31.1141 6.99219 30.0156 6.99219H15.9375C14.839 6.99219 13.9453 7.88588 13.9453 8.98438V18.9453H3.98438C2.88588 18.9453 1.99219 19.839 1.99219 20.9375V25.226Z" fill="#114965"/>
</svg>
