<svg width="60" height="60" viewBox="0 0 60 60" fill="none" xmlns="http://www.w3.org/2000/svg">
<circle r="29.5" transform="matrix(-1 0 0 1 30 30)" stroke="white" stroke-opacity="0.15"/>
<circle r="29.5" transform="matrix(-1 0 0 1 30 30)" stroke="url(#paint0_linear_1330_5058)"/>
<path d="M25.5897 28.9646L32.3351 22.2214C32.6311 21.9262 33.1107 21.9262 33.4074 22.2214C33.7034 22.5167 33.7034 22.9962 33.4074 23.2914L27.197 29.4996L33.4067 35.7077C33.7026 36.003 33.7026 36.4825 33.4067 36.7785C33.1107 37.0737 32.6304 37.0737 32.3344 36.7785L25.589 30.0353C25.2975 29.7431 25.2975 29.2561 25.5897 28.9646Z" fill="white"/>
<defs>
<linearGradient id="paint0_linear_1330_5058" x1="56.3636" y1="14.5455" x2="6.81818" y2="47.2727" gradientUnits="userSpaceOnUse">
<stop stop-color="#60C0BC"/>
<stop offset="0.302525" stop-color="#4EB5E7"/>
<stop offset="0.764526" stop-color="#7662A7" stop-opacity="0"/>
</linearGradient>
</defs>
</svg>
