<svg width="155" height="155" viewBox="0 0 155 155" fill="none" xmlns="http://www.w3.org/2000/svg">
<path d="M136.345 68.664C134.067 67.944 131.693 66.9457 129.43 65.9935C128.247 65.496 127.094 65.011 126 64.585C122.653 63.2812 119.603 62.4038 116.714 62.5496L116.711 62.5497C111.512 62.805 107.845 60.8759 104.97 58.3824C103.565 57.1639 102.344 55.8071 101.245 54.5528C101.083 54.368 100.924 54.1862 100.768 54.0075C99.8365 52.9403 99.0012 51.9832 98.1335 51.1498C97.1193 50.1807 96.4319 49.0041 95.8968 48.0121C95.7487 47.7376 95.6139 47.4813 95.4869 47.2398C95.1116 46.5264 94.8046 45.9429 94.4267 45.4052C93.9639 44.7469 93.5336 44.3781 93.0325 44.1849C92.5253 43.9893 91.6827 43.8736 90.2171 44.2323C88.8246 44.5742 87.3415 44.7922 85.9187 44.977C85.5116 45.0299 85.1121 45.0798 84.719 45.129C83.7005 45.2562 82.7245 45.3781 81.7692 45.5328C79.0268 45.9769 77.2301 46.5966 76.2895 47.6315C74.2492 49.8768 72.264 51.0241 70.0981 51.4686C68.2737 51.843 66.4155 51.6796 64.6959 51.5283C64.5081 51.5118 64.3219 51.4955 64.1376 51.4799L64.1333 51.4796C57.5973 50.9151 51.0879 50.0966 44.5775 48.4563C39.9068 47.2971 35.1421 47.0415 30.6123 48.7699C29.7174 49.1158 28.9787 49.4026 28.3648 49.7156C27.738 50.0352 27.4452 50.2843 27.3207 50.4469C27.2619 50.5238 27.2196 50.5831 27.2563 50.8112C27.3091 51.1397 27.5384 51.766 28.2764 52.7809C29.4148 54.3349 30.2344 56.195 29.7968 58.1649C29.3546 60.1553 27.7857 61.5677 25.7865 62.5864L25.7792 62.5901L25.7792 62.5901C24.3089 63.3316 22.9301 64.9139 21.6302 66.7361L21.6277 66.7395C18.9603 70.4618 17.8877 73.8624 18.001 76.1717C18.0563 77.2982 18.3834 78.0552 18.8115 78.5335C19.2225 78.9927 19.8888 79.3784 21.0061 79.4731C22.9271 79.6351 24.8546 79.9374 26.7051 80.2277C26.9407 80.2646 27.175 80.3013 27.4079 80.3376C29.5036 80.6637 31.5098 80.9532 33.4952 81.0417C37.4026 81.2159 41.1422 80.6081 44.8837 77.9053L46.0545 79.5259L44.8819 77.9066C48.4182 75.3459 52.6191 75.3257 56.2748 76.7949C59.9019 78.2525 63.1332 81.2098 65.0687 84.9115L65.0695 84.9129C65.9689 86.6362 67.0407 88.1919 68.289 90.0036C68.903 90.8946 69.5596 91.8476 70.2593 92.9129L72.0384 95.6215C72.1218 95.5272 72.2057 95.4325 72.2903 95.3375L72.2929 95.3347L72.3372 95.2852C73.1967 94.3237 74.4232 92.9519 75.8238 92.2035C76.5884 91.7949 77.5436 91.4911 78.617 91.6227C79.71 91.7568 80.6589 92.3093 81.4541 93.1246L81.4556 93.1262C82.8066 94.5145 84.3076 95.1069 86.0599 95.435C86.9652 95.6044 87.9057 95.6979 88.9518 95.7983L89.0446 95.8072C90.0372 95.9025 91.1258 96.007 92.2165 96.2011L94.0779 96.5324L93.8516 98.4096C93.6939 99.718 93.1038 100.693 92.315 101.416L92.3145 101.416C91.7783 101.907 91.1825 102.254 90.7172 102.508C90.5262 102.612 90.365 102.697 90.2211 102.773C90.0686 102.853 89.9357 102.923 89.8079 102.995C89.8871 103.023 89.9719 103.053 90.0603 103.084C90.5202 103.246 91.0807 103.444 91.4889 103.615C92.2269 103.926 93.1202 104.386 93.8394 105.174C94.6078 106.016 95.0537 107.093 95.1086 108.394L95.1089 108.402L95.1092 108.41C95.13 109.021 95.0704 109.671 94.9238 110.374C94.9309 110.379 94.9384 110.384 94.9461 110.388C94.9989 110.42 95.0561 110.448 95.1128 110.47C97.678 108.903 100.439 107.803 103.034 106.769C103.442 106.607 103.844 106.447 104.242 106.286C105.22 105.891 106.176 105.494 107.106 105.07L133.215 81.4748C133.216 81.4746 133.216 81.4745 133.217 81.4743C134.492 80.9883 134.91 80.4311 135.102 79.9925C135.343 79.4399 135.396 78.6951 135.318 77.5406C135.302 77.3066 135.279 77.0423 135.254 76.7575C135.173 75.8415 135.073 74.7134 135.144 73.7018C135.243 72.2812 135.675 70.725 136.992 69.426M136.345 68.664C136.344 68.6639 136.344 68.6638 136.344 68.6637L136.948 66.7573L136.346 68.6643C136.345 68.6642 136.345 68.6641 136.345 68.664ZM136.345 68.664C136.649 68.7609 136.79 68.8806 136.855 68.9513C136.923 69.0258 136.963 69.1083 136.984 69.1994C137.003 69.2847 137.001 69.3662 136.992 69.426M136.992 69.426C136.99 69.4366 136.988 69.4464 136.986 69.4555C136.983 69.4648 136.981 69.472 136.98 69.4772M136.992 69.426C137.033 69.3849 137.076 69.3441 137.119 69.3035L138.484 70.7651L137.111 69.3115C137.026 69.3912 136.991 69.4531 136.98 69.4772M136.98 69.4772C136.977 69.485 136.976 69.4885 136.975 69.4882C136.975 69.488 136.976 69.4841 136.98 69.4772ZM107.643 92.882C106.92 93.0193 105.298 93.4778 103.926 94.4894C103.22 95.0103 102.484 95.7487 102.034 96.7621C101.566 97.8168 101.475 99.0195 101.845 100.295C101.845 100.295 101.845 100.295 101.845 100.295L107.643 92.882ZM94.7485 110.697C94.7521 110.695 94.7557 110.692 94.7593 110.69L94.7485 110.697Z" stroke="url(#paint0_linear_1324_5063)" stroke-width="4"/>
<circle cx="77.5" cy="77.5" r="77" stroke="url(#paint1_linear_1324_5063)"/>
<defs>
<linearGradient id="paint0_linear_1324_5063" x1="77.4957" y1="42" x2="77.4957" y2="112.517" gradientUnits="userSpaceOnUse">
<stop stop-color="#60C0BC"/>
<stop offset="0.508333" stop-color="#4EB5E7"/>
<stop offset="1" stop-color="#7662A7"/>
</linearGradient>
<linearGradient id="paint1_linear_1324_5063" x1="77.5" y1="0" x2="77.5" y2="155" gradientUnits="userSpaceOnUse">
<stop stop-color="#60C0BC"/>
<stop offset="0.508333" stop-color="#4EB5E7"/>
<stop offset="1" stop-color="#7662A7"/>
</linearGradient>
</defs>
</svg>
