<svg width="155" height="155" viewBox="0 0 155 155" fill="none" xmlns="http://www.w3.org/2000/svg">
<circle cx="77.5" cy="77.5" r="77.5" fill="white" fill-opacity="0.07"/>
<circle cx="77.5" cy="77.5" r="77" stroke="url(#paint0_linear_1326_5107)"/>
<g clip-path="url(#clip0_1326_5107)">
<path fill-rule="evenodd" clip-rule="evenodd" d="M68.3327 49.9951C69.0692 49.9951 69.6661 49.3981 69.6661 48.6618C69.6686 47.9173 69.7391 47.1746 69.8767 46.443C71.1621 46.2656 72.4583 46.1389 73.7437 46.0683C74.4802 46.027 75.0436 45.3967 75.0024 44.6602C74.9611 43.9238 74.3308 43.3603 73.5943 43.4015C71.9236 43.4948 70.2327 43.6748 68.5699 43.9349C68.045 44.0172 67.6192 44.4033 67.4858 44.9176C67.1664 46.1402 67.0029 47.3982 66.999 48.6619C66.999 49.0155 67.1395 49.3548 67.3895 49.6048C67.6395 49.8548 67.9791 49.9951 68.3327 49.9951Z" fill="url(#paint1_linear_1326_5107)"/>
<path d="M40.3307 108.666C39.5942 108.666 38.9973 109.263 38.9973 109.999C38.9973 110.736 39.5944 111.333 40.3307 111.333H46.9979V113.999C46.9979 116.209 48.7889 118 50.9982 118H101.668C103.878 118 105.669 116.209 105.669 113.999V111.333H113.669C114.406 111.333 115.003 110.735 115.003 109.999C115.003 109.263 114.406 108.666 113.669 108.666H109.669V105.999H113.669C114.406 105.999 115.003 105.402 115.003 104.666C115.003 103.929 114.406 103.332 113.669 103.332H109.669V100.665H113.669C114.406 100.665 115.003 100.068 115.003 99.3319C115.003 98.5956 114.406 97.9985 113.669 97.9985H109.669V95.3316H113.669C114.406 95.3316 115.003 94.7347 115.003 93.9982C115.003 93.2618 114.406 92.6648 113.669 92.6648H109.669V89.9979H113.669C114.406 89.9979 115.003 89.401 115.003 88.6646C115.003 87.9281 114.406 87.3312 113.669 87.3312H109.669V84.6641H113.669C114.406 84.6641 115.003 84.0672 115.003 83.3308C115.003 82.5943 114.406 81.9974 113.669 81.9974H109.669V79.3305H113.669C114.406 79.3305 115.003 78.7336 115.003 77.9971C115.003 77.2606 114.406 76.6637 113.669 76.6637H105.669V67.3298C105.669 65.1206 103.878 63.3295 101.668 63.3295V52.6619C101.668 49.7162 99.2805 47.3282 96.3348 47.3282H90.9303C90.776 45.0667 90.2595 42.8445 89.4009 40.7464C89.0551 39.914 88.3195 39.3067 87.4367 39.1248C80.1104 37.6247 72.5561 37.6247 65.2298 39.1248C64.3469 39.3067 63.6114 39.914 63.2656 40.7464C62.4072 42.8445 61.8908 45.0665 61.7361 47.3282H56.3317C53.386 47.3282 50.998 49.7162 50.998 52.6619V63.3293C48.7888 63.3293 46.9977 65.1204 46.9977 67.3296V76.6636H40.3307C39.5942 76.6636 38.9973 77.2606 38.9973 77.9969C38.9973 78.7332 39.5944 79.3303 40.3307 79.3303H42.9976V81.9972H40.3307C39.5942 81.9972 38.9973 82.5941 38.9973 83.3306C38.9973 84.0671 39.5944 84.664 40.3307 84.664H42.9976V87.3309H40.3307C39.5942 87.3309 38.9973 87.9278 38.9973 88.6643C38.9973 89.4007 39.5944 89.9976 40.3307 89.9976H42.9976V92.6645H40.3307C39.5942 92.6645 38.9973 93.2615 38.9973 93.9979C38.9973 94.7344 39.5944 95.3313 40.3307 95.3313H42.9976V97.9982H40.3307C39.5942 97.9982 38.9973 98.5951 38.9973 99.3316C38.9973 100.068 39.5944 100.665 40.3307 100.665H42.9976V103.332H40.3307C39.5942 103.332 38.9973 103.929 38.9973 104.665C38.9973 105.402 39.5944 105.999 40.3307 105.999H42.9976V108.666H40.3307V108.666ZM45.6645 79.3305H53.6651V87.331H45.6645V79.3305ZM85.6673 79.3305V87.331H77.6668V79.3305H85.6673ZM96.3346 79.3305V87.331H88.3341V79.3305H96.3346ZM107.002 108.666H99.0015V100.665H107.002V108.666ZM66.9993 108.666V100.665H74.9998V108.666H66.9993ZM56.3318 108.666V100.665H64.3324V108.666H56.3318ZM45.6645 89.9979H53.6651V97.9985H45.6645V89.9979ZM56.3318 89.9979H64.3324V97.9985H56.3318V89.9979ZM74.9998 97.9985H66.9993V89.9979H74.9998V97.9985ZM77.6668 89.9979H85.6673V97.9985H77.6668V89.9979ZM77.6668 100.665H85.6673V108.666H77.6668V100.665ZM88.3341 100.665H96.3346V108.666H88.3341V100.665ZM107.002 97.9985H99.0015V89.9979H107.002V97.9985ZM96.3346 97.9985H88.3341V89.9979H96.3346V97.9985ZM74.9998 87.331H66.9993V79.3305H74.9998V87.331ZM64.3324 87.331H56.3318V79.3305H64.3324V87.331ZM45.6645 100.665H53.6651V108.666H45.6645V100.665ZM103.002 114C103.002 114.736 102.405 115.333 101.668 115.333H50.9982C50.2617 115.333 49.6648 114.736 49.6648 114V111.333H103.002V114ZM107.002 87.331H99.0015V79.3305H107.002V87.331ZM65.7631 41.7385C72.7456 40.3068 79.9464 40.3109 86.9272 41.7505C87.8392 43.9281 88.3197 46.2622 88.342 48.623C88.342 48.6363 88.3341 48.6483 88.3341 48.6616C88.3341 48.6749 88.342 48.6869 88.342 48.7002C88.3203 51.0593 87.8403 53.3915 86.9286 55.5674C86.9224 55.5758 86.9135 55.5819 86.9033 55.5847C79.9208 57.0162 72.7202 57.0122 65.7392 55.5727C64.8273 53.3911 64.3494 51.0527 64.3324 48.6882C64.3324 48.6788 64.3324 48.6708 64.3324 48.6614C64.3324 48.6521 64.3324 48.6441 64.3324 48.6347C64.3546 46.2649 64.8407 43.9219 65.7631 41.7385V41.7385ZM53.6651 52.6619C53.6651 51.189 54.8591 49.995 56.332 49.995H61.7364C61.892 52.2569 62.4097 54.479 63.2698 56.5768C63.6148 57.4082 64.3486 58.0152 65.2299 58.1984C68.8838 58.9472 72.6036 59.3259 76.3334 59.3291C80.0629 59.3277 83.7828 58.9506 87.4368 58.2037C88.3181 58.0205 89.0519 57.4136 89.3969 56.5822C90.2573 54.4826 90.775 52.2586 90.9303 49.995H96.3348C97.8077 49.995 99.0017 51.189 99.0017 52.6619V63.3293H53.6651V52.6619ZM49.6648 67.3296C49.6648 66.5932 50.2619 65.9963 50.9982 65.9963H101.668C102.405 65.9963 103.002 66.5932 103.002 67.3296V76.6636H49.6648V67.3296Z" fill="url(#paint2_linear_1326_5107)"/>
</g>
<defs>
<linearGradient id="paint0_linear_1326_5107" x1="77.5" y1="0" x2="77.5" y2="155" gradientUnits="userSpaceOnUse">
<stop stop-color="#60C0BC"/>
<stop offset="0.508333" stop-color="#4EB5E7"/>
<stop offset="1" stop-color="#7662A7"/>
</linearGradient>
<linearGradient id="paint1_linear_1326_5107" x1="71.0018" y1="43.3994" x2="71.0018" y2="49.9951" gradientUnits="userSpaceOnUse">
<stop stop-color="#60C0BC"/>
<stop offset="0.508333" stop-color="#4EB5E7"/>
<stop offset="1" stop-color="#7662A7"/>
</linearGradient>
<linearGradient id="paint2_linear_1326_5107" x1="77" y1="37.9998" x2="77" y2="118" gradientUnits="userSpaceOnUse">
<stop stop-color="#60C0BC"/>
<stop offset="0.508333" stop-color="#4EB5E7"/>
<stop offset="1" stop-color="#7662A7"/>
</linearGradient>
<clipPath id="clip0_1326_5107">
<rect width="80" height="80" fill="white" transform="translate(37 38)"/>
</clipPath>
</defs>
</svg>
