<svg width="155" height="155" viewBox="0 0 155 155" fill="none" xmlns="http://www.w3.org/2000/svg">
<circle cx="77.5" cy="77.5" r="77.5" fill="white" fill-opacity="0.07"/>
<circle cx="77.5" cy="77.5" r="77" stroke="url(#paint0_linear_1327_5121)"/>
<path d="M103.706 70.2377L109.185 69.998C110.138 69.7582 111.091 68.7993 111.091 67.6006V60.8879H52.0063C50.8151 60.8879 49.8621 59.9289 49.8621 58.9699C49.8621 57.7712 50.8151 56.8123 52.0063 56.8123H62.9656L70.5895 53.2162H48.6709C47.2414 53.2162 46.0502 54.4149 46.0502 55.8533V106.678C46.0502 108.117 47.2414 109.315 48.6709 109.315H108.471C109.9 109.315 111.091 108.117 111.091 106.678V94.931C111.091 93.4925 109.9 92.2938 108.471 92.2938C105.85 92.2938 103.229 92.2938 100.37 92.2938C96.7965 92.2938 93.9376 89.417 93.9376 85.5811V76.7107C93.9376 70.7172 98.9408 70.2377 103.706 70.2377ZM72.2572 56.8123H98.4643L93.4611 46.7432L72.2572 56.8123ZM102.991 56.8123H111.091V55.8533C111.091 54.4149 109.9 53.2162 108.471 53.2162H101.085L102.991 56.8123ZM99.179 49.1406H108.471C112.044 49.1406 114.903 52.2572 114.903 55.8533C114.903 59.6892 114.903 63.7647 114.903 67.6006C114.903 68.5595 114.903 69.2788 114.427 70.2377H115.856C119.43 70.2377 122.527 73.1146 122.527 76.7107V85.5811C122.527 89.1772 119.43 92.2938 115.856 92.2938H114.427C114.903 93.0131 114.903 93.972 114.903 94.931V106.678C114.903 110.274 112.044 113.151 108.471 113.151H48.6709C45.0972 113.151 42 110.274 42 106.678V55.8533C42 52.2572 45.0972 49.1406 48.6709 49.1406H78.9281L93.6993 42.1881C94.6523 41.7086 95.8436 42.1881 96.32 43.1471L99.179 49.1406ZM115.856 74.3133C110.615 74.3133 105.612 74.3133 100.37 74.3133C98.9408 74.3133 97.9878 75.2723 97.9878 76.7107V85.5811C97.9878 87.0196 98.9408 88.2183 100.37 88.2183C105.612 88.2183 110.615 88.2183 115.856 88.2183C117.286 88.2183 118.477 87.0196 118.477 85.5811V76.7107C118.477 75.2723 117.286 74.3133 115.856 74.3133Z" fill="url(#paint1_linear_1327_5121)"/>
<path d="M105.135 84.3824C106.846 84.3824 108.232 82.9871 108.232 81.2658C108.232 79.5445 106.846 78.1492 105.135 78.1492C103.425 78.1492 102.038 79.5445 102.038 81.2658C102.038 82.9871 103.425 84.3824 105.135 84.3824Z" fill="url(#paint2_linear_1327_5121)"/>
<defs>
<linearGradient id="paint0_linear_1327_5121" x1="77.5" y1="0" x2="77.5" y2="155" gradientUnits="userSpaceOnUse">
<stop stop-color="#60C0BC"/>
<stop offset="0.508333" stop-color="#4EB5E7"/>
<stop offset="1" stop-color="#7662A7"/>
</linearGradient>
<linearGradient id="paint1_linear_1327_5121" x1="82.2635" y1="42" x2="82.2635" y2="113.151" gradientUnits="userSpaceOnUse">
<stop stop-color="#60C0BC"/>
<stop offset="0.508333" stop-color="#4EB5E7"/>
<stop offset="1" stop-color="#7662A7"/>
</linearGradient>
<linearGradient id="paint2_linear_1327_5121" x1="105.135" y1="78.1492" x2="105.135" y2="84.3824" gradientUnits="userSpaceOnUse">
<stop stop-color="#60C0BC"/>
<stop offset="0.508333" stop-color="#4EB5E7"/>
<stop offset="1" stop-color="#7662A7"/>
</linearGradient>
</defs>
</svg>
