<svg width="56" height="56" viewBox="0 0 56 56" fill="none" xmlns="http://www.w3.org/2000/svg">
<circle cx="28" cy="28" r="27.5" stroke="white" stroke-opacity="0.15"/>
<path d="M40.4823 23.0445C40.2804 22.8171 39.9914 22.6875 39.6876 22.6875H34.3751V19.5C34.3751 15.9842 31.5159 13.125 28.0001 13.125C24.4842 13.125 21.6251 15.9842 21.6251 19.5V22.6875H16.3126C16.0087 22.6875 15.7197 22.8171 15.5178 23.0445C15.3159 23.2719 15.2214 23.5747 15.2564 23.8754L17.0659 39.0936C17.306 41.2494 19.1218 42.875 21.2904 42.875H34.7097C36.8794 42.875 38.6941 41.2494 38.9332 39.1021L40.7437 23.8754C40.7787 23.5736 40.6842 23.2719 40.4823 23.0445V23.0445ZM23.7501 19.5C23.7501 17.1561 25.6562 15.25 28.0001 15.25C30.3439 15.25 32.2501 17.1561 32.2501 19.5V22.6875H23.7501V19.5ZM22.6876 26.9375C22.1011 26.9375 21.6251 26.4615 21.6251 25.875C21.6251 25.2885 22.1011 24.8125 22.6876 24.8125C23.2741 24.8125 23.7501 25.2885 23.7501 25.875C23.7501 26.4615 23.2741 26.9375 22.6876 26.9375ZM33.3126 26.9375C32.7261 26.9375 32.2501 26.4615 32.2501 25.875C32.2501 25.2885 32.7261 24.8125 33.3126 24.8125C33.8991 24.8125 34.3751 25.2885 34.3751 25.875C34.3751 26.4615 33.8991 26.9375 33.3126 26.9375Z" fill="white"/>
</svg>
