<svg width="56" height="56" viewBox="0 0 56 56" fill="none" xmlns="http://www.w3.org/2000/svg">
<circle cx="28" cy="28" r="28" fill="white" fill-opacity="0.12"/>
<path d="M29.3334 38.584C32.0231 38.2417 34.4816 36.8882 36.2092 34.7984C37.9367 32.7086 38.8037 30.0394 38.6339 27.3333C38.4641 24.6272 37.2703 22.0873 35.2951 20.2298C33.3199 18.3724 30.7115 17.3367 28.0001 17.3333C25.2854 17.3313 22.672 18.3644 20.6925 20.2222C18.7131 22.08 17.5164 24.6226 17.3464 27.332C17.1764 30.0414 18.0459 32.7137 19.7776 34.8043C21.5093 36.895 23.9731 38.2467 26.6667 38.584V30.6667H24.0001V28H26.6667V25.7947C26.6667 24.012 26.8534 23.3653 27.2001 22.7133C27.5416 22.0682 28.0694 21.5409 28.7147 21.2C29.2241 20.9267 29.8574 20.7627 30.9641 20.692C31.4027 20.664 31.9707 20.6987 32.6681 20.7987V23.332H32.0001C30.7774 23.332 30.2721 23.3893 29.9707 23.5507C29.7909 23.6431 29.6446 23.7895 29.5521 23.9693C29.3921 24.2707 29.3334 24.5693 29.3334 25.7933V28H32.6667L32.0001 30.6667H29.3334V38.584ZM28.0001 41.3333C20.6361 41.3333 14.6667 35.364 14.6667 28C14.6667 20.636 20.6361 14.6667 28.0001 14.6667C35.3641 14.6667 41.3334 20.636 41.3334 28C41.3334 35.364 35.3641 41.3333 28.0001 41.3333Z" fill="white"/>
</svg>
