<svg width="56" height="56" viewBox="0 0 56 56" fill="none" xmlns="http://www.w3.org/2000/svg">
<circle cx="28" cy="28" r="28" fill="white" fill-opacity="0.12"/>
<path d="M27.9999 24.5C27.0717 24.5 26.1814 24.8688 25.525 25.5251C24.8687 26.1815 24.4999 27.0718 24.4999 28C24.4999 28.9283 24.8687 29.8185 25.525 30.4749C26.1814 31.1313 27.0717 31.5 27.9999 31.5C28.9282 31.5 29.8184 31.1313 30.4748 30.4749C31.1312 29.8185 31.4999 28.9283 31.4999 28C31.4999 27.0718 31.1312 26.1815 30.4748 25.5251C29.8184 24.8688 28.9282 24.5 27.9999 24.5ZM27.9999 22.1667C29.547 22.1667 31.0307 22.7813 32.1247 23.8752C33.2187 24.9692 33.8333 26.4529 33.8333 28C33.8333 29.5471 33.2187 31.0308 32.1247 32.1248C31.0307 33.2188 29.547 33.8333 27.9999 33.8333C26.4528 33.8333 24.9691 33.2188 23.8751 32.1248C22.7812 31.0308 22.1666 29.5471 22.1666 28C22.1666 26.4529 22.7812 24.9692 23.8751 23.8752C24.9691 22.7813 26.4528 22.1667 27.9999 22.1667ZM35.5833 21.875C35.5833 22.2618 35.4296 22.6327 35.1561 22.9062C34.8826 23.1797 34.5117 23.3333 34.1249 23.3333C33.7381 23.3333 33.3672 23.1797 33.0937 22.9062C32.8202 22.6327 32.6666 22.2618 32.6666 21.875C32.6666 21.4882 32.8202 21.1173 33.0937 20.8438C33.3672 20.5703 33.7381 20.4167 34.1249 20.4167C34.5117 20.4167 34.8826 20.5703 35.1561 20.8438C35.4296 21.1173 35.5833 21.4882 35.5833 21.875ZM27.9999 18.6667C25.1136 18.6667 24.6423 18.6748 23.2994 18.7343C22.3848 18.7775 21.7711 18.9 21.2018 19.1217C20.6954 19.3177 20.3303 19.5522 19.9418 19.9418C19.5766 20.2946 19.2958 20.7254 19.1204 21.2018C18.8988 21.7735 18.7763 22.386 18.7343 23.2995C18.6736 24.5875 18.6666 25.0378 18.6666 28C18.6666 30.8863 18.6748 31.3577 18.7343 32.7005C18.7774 33.614 18.8999 34.2288 19.1204 34.797C19.3188 35.3045 19.5521 35.6697 19.9394 36.057C20.3326 36.449 20.6978 36.6835 21.1994 36.8772C21.7758 37.1 22.3894 37.2237 23.2994 37.2657C24.5874 37.3263 25.0378 37.3333 27.9999 37.3333C30.8863 37.3333 31.3576 37.3252 32.7004 37.2657C33.6128 37.2225 34.2276 37.1 34.7969 36.8795C35.3021 36.6823 35.6696 36.4478 36.0569 36.0605C36.4501 35.6673 36.6846 35.3022 36.8783 34.8005C37.0999 34.2253 37.2236 33.6105 37.2656 32.7005C37.3263 31.4125 37.3333 30.9622 37.3333 28C37.3333 25.1137 37.3251 24.6423 37.2656 23.2995C37.2224 22.3872 37.0999 21.7712 36.8783 21.2018C36.7024 20.7258 36.4222 20.2953 36.0581 19.9418C35.7054 19.5765 35.2747 19.2957 34.7981 19.1205C34.2264 18.8988 33.6128 18.7763 32.7004 18.7343C31.4124 18.6737 30.9621 18.6667 27.9999 18.6667ZM27.9999 16.3333C31.1698 16.3333 31.5653 16.345 32.8089 16.4033C34.0514 16.4617 34.8973 16.6565 35.6416 16.9458C36.4116 17.2422 37.0603 17.6435 37.7089 18.291C38.3022 18.8742 38.7612 19.5797 39.0541 20.3583C39.3423 21.1015 39.5383 21.9485 39.5966 23.191C39.6514 24.4347 39.6666 24.8302 39.6666 28C39.6666 31.1698 39.6549 31.5653 39.5966 32.809C39.5383 34.0515 39.3423 34.8973 39.0541 35.6417C38.762 36.4207 38.3029 37.1264 37.7089 37.709C37.1255 38.3021 36.4201 38.7611 35.6416 39.0542C34.8984 39.3423 34.0514 39.5383 32.8089 39.5967C31.5653 39.6515 31.1698 39.6667 27.9999 39.6667C24.8301 39.6667 24.4346 39.655 23.1909 39.5967C21.9484 39.5383 21.1026 39.3423 20.3583 39.0542C19.5793 38.7619 18.8737 38.3028 18.2909 37.709C17.6976 37.1259 17.2385 36.4204 16.9458 35.6417C16.6564 34.8985 16.4616 34.0515 16.4033 32.809C16.3484 31.5653 16.3333 31.1698 16.3333 28C16.3333 24.8302 16.3449 24.4347 16.4033 23.191C16.4616 21.9473 16.6564 21.1027 16.9458 20.3583C17.2377 19.5792 17.6969 18.8736 18.2909 18.291C18.8739 17.6974 19.5794 17.2384 20.3583 16.9458C21.1026 16.6565 21.9473 16.4617 23.1909 16.4033C24.4346 16.3485 24.8301 16.3333 27.9999 16.3333Z" fill="white"/>
</svg>
