<svg width="175" height="58" viewBox="0 0 175 58" fill="none" xmlns="http://www.w3.org/2000/svg">
<path d="M1.82476 33.5466C1.2883 33.5466 0.924583 33.8604 0.703857 34.466V56.2113C0.703857 56.6547 1.08965 56.9455 1.82476 57.1307H2.22303C2.92455 57.1307 3.32282 56.671 3.42646 55.7516V38.4084L15.6806 53.3179C16.3888 54.4503 17.0894 55.028 17.7775 55.028C18.1623 55.028 18.5471 54.8764 18.9041 54.5684C27.6334 43.8133 32.0527 38.4247 32.1285 38.4084V55.7516C32.2312 56.671 32.6294 57.1307 33.331 57.1307H33.7292C34.2657 57.1307 34.6304 56.8169 34.8501 56.2113V34.466C34.8501 34.0236 34.4653 33.7318 33.7292 33.5466H33.331C33.1314 33.5466 32.8914 33.6301 32.6093 33.8105C29.0489 38.0658 24.1277 44.0877 17.86 51.8765H17.6949C17.6738 51.7757 13.2612 46.3756 4.47059 35.6493C3.50132 34.253 2.7662 33.5466 2.22303 33.5466H1.82476ZM43.0362 35.7001C42.5064 35.7001 42.1629 35.9804 41.9844 36.5581V56.2728C41.9844 56.6989 42.3279 56.9791 43.0362 57.1307H43.3519C43.8807 57.1307 44.2252 56.8505 44.4037 56.2728V36.5581C44.4037 36.131 44.0602 35.8508 43.3519 35.7001H43.0362ZM49.5725 35.7001C49.0495 35.7001 48.7127 35.9804 48.5275 36.5581V36.821C48.5275 37.2923 48.9324 37.5898 49.7366 37.6732H50.8432V55.1518H49.7165C48.9324 55.2353 48.5275 55.5271 48.5275 56.0098V56.267C48.5275 56.6988 48.871 56.9791 49.5725 57.1249H66.8026C67.1059 57.1249 67.6068 56.7775 68.3285 56.0712C70.2046 54.6413 71.147 53.8227 71.147 53.5761V53.245C71.147 52.768 70.7478 52.4715 69.9436 52.3928H69.7785C69.4762 52.3928 68.2123 53.3121 65.9917 55.1518H53.3527V36.7539C53.3527 36.1762 53.0082 35.8345 52.3076 35.7001H49.5725ZM84.0201 35.9017C82.9136 35.9017 81.6286 36.1147 80.1642 36.5581C75.3389 38.3018 72.9196 41.7384 72.9196 46.8698V56.2728C72.9196 56.6989 73.2631 56.9791 73.9714 57.1307H74.2881C74.8169 57.1307 75.1604 56.8505 75.3389 56.2728V50.2959H93.7455V56.2728C93.7455 56.6989 94.0891 56.9791 94.7973 57.1307H95.1131C95.6428 57.1307 95.9864 56.8505 96.1649 56.2728V46.8698C96.1649 44.0599 95.4365 41.7221 93.9864 39.8997C91.4154 37.2251 88.4395 35.9017 85.0652 35.9017H84.0201ZM75.3389 47.795C75.3389 44.7835 75.8821 42.6924 76.9473 41.5427C78.858 39.2548 81.3878 38.1224 84.5835 38.1224C87.2159 38.1224 89.4222 38.9573 91.2504 40.6233C92.9212 41.8229 93.7455 44.223 93.7455 47.795V48.2546H75.3389V47.795ZM100.076 35.7049C99.5535 35.7049 99.2099 35.9852 99.0305 36.5629V38.8009C99.0305 39.2433 99.4364 39.535 100.241 39.7202C101.045 39.535 101.45 39.2433 101.45 38.8009V37.7462H109.1V56.2728C109.1 56.6989 109.444 56.9791 110.151 57.1307H110.475C111.217 57.1307 111.602 56.671 111.602 55.7516V37.7462H118.853V38.8009C118.853 39.227 119.197 39.5014 119.898 39.6531H120.221C120.743 39.6531 121.087 39.3728 121.265 38.8009V36.5629C121.265 36.131 120.928 35.8508 120.221 35.7049H100.076ZM134.325 35.9746C131.836 35.9746 129.362 36.7145 126.929 38.2116C123.87 40.5724 122.337 43.1856 122.337 46.0224V46.9428C122.337 49.555 123.691 51.983 126.365 54.2315C129.08 56.1547 131.775 57.1249 134.49 57.1249H135.61C137.52 57.1249 139.472 56.6825 141.479 55.8073C144.435 54.3774 146.455 52.4427 147.521 49.9648C147.439 49.2249 147.019 48.8487 146.228 48.8487C145.665 48.8487 145.081 49.4542 144.455 50.6884C142.063 53.6595 139.033 55.1518 135.369 55.1518C133.905 55.1518 132.414 54.9042 130.949 54.4282C126.826 52.5722 124.757 49.9312 124.757 46.4821C124.757 45.2489 125.08 44.0042 125.719 42.7423C127.774 39.5408 130.805 37.9487 134.805 37.9487C137.424 37.9487 139.733 38.6041 141.727 39.916C143.974 41.6098 145.102 43.152 145.102 44.5762V44.8392C145.102 45.3161 144.537 45.5628 143.411 45.5628H127.816C127.21 45.5628 126.826 45.9102 126.688 46.6174C126.688 47.127 127.087 47.4245 127.891 47.5368H144.057C144.359 47.5368 144.758 47.4859 145.259 47.4072C146.772 46.914 147.521 46.1069 147.521 44.9745V44.4466C147.521 43.2307 146.937 41.9352 145.748 40.5724C142.868 37.5053 139.411 35.9746 135.369 35.9746H134.325ZM150.958 35.7049C150.449 35.7049 150.112 36.0197 149.906 36.6253C149.906 37.2366 150.332 37.5945 151.198 37.679H153.129C157.157 42.5071 159.432 45.1981 159.975 45.7595C159.796 46.1011 157.177 49.2412 152.084 55.1518H150.228C149.508 55.1518 149.081 55.4992 148.943 56.2056C149.163 56.8111 149.528 57.1249 149.988 57.1249H152.723C153.15 57.1249 153.569 56.9455 154.016 56.5981C158.91 50.7162 161.425 47.7441 161.59 47.6654C164.504 51.2431 166.237 53.2786 166.744 53.7718C168.374 56.0098 169.542 57.1249 170.202 57.1249H173.026C173.549 57.1249 173.893 56.8447 174.071 56.267V56.1384C174.071 55.5444 173.666 55.219 172.862 55.1518H170.848C170.546 54.7421 167.968 51.6529 163.116 45.8881V45.7595C167.267 40.8805 169.522 38.1895 169.885 37.679H171.9C172.704 37.5782 173.102 37.3038 173.102 36.821V36.5629C173.102 36.131 172.759 35.8508 172.058 35.7049H169.239C168.978 35.7049 168.655 35.8345 168.27 36.0975C166.237 38.4026 164.023 41.0264 161.59 43.987C161.528 43.987 159.714 41.9016 156.188 37.7462C155.246 36.3786 154.421 35.7049 153.693 35.7049H150.958Z" fill="#FEFEFE"/>
<path fill-rule="evenodd" clip-rule="evenodd" d="M30.5691 0.687286H48.6033C45.3942 2.74291 42.7368 6.25725 40.3674 8.8954C38.1745 11.3378 36.1496 13.5191 33.9788 15.9049C33.0067 16.974 31.7524 18.0987 30.5691 18.9874V0.687286ZM55.1915 0.687286H60.3709C58.1032 1.9483 56.347 3.99337 54.7971 5.70256C53.6589 6.95685 52.752 7.9482 51.6878 9.13627C48.7195 12.4481 45.0996 16.7945 41.685 19.3261C40.0958 20.5036 37.5613 21.5007 37.3732 21.7032C38.8406 22.3443 42.0036 22.1274 43.6562 21.6812C45.7637 21.1121 46.921 20.281 48.1235 19.2033C53.9622 13.9711 60.4352 4.17379 66.6933 0.853311C66.8046 0.794771 66.9092 0.740069 67.01 0.687286H143.359V19.8213C140.979 18.2945 139.347 16.3866 137.428 14.3176C134.692 11.3646 132.46 8.81286 129.804 5.93863C128.195 4.2141 125.745 2.2506 123.558 1.53276C122.951 1.3034 122.146 1.08652 121.112 1.13834C118.277 1.28037 116.719 1.92335 114.56 3.70547C112.425 5.46648 105.577 13.2878 103.349 15.7302C102.412 16.7571 101.689 17.711 100.136 18.33C98.6592 18.9183 96.4404 18.8156 95.26 17.9221C95.3886 17.4394 102.191 10.1459 103.103 9.1334C105.279 6.72173 106.896 4.87627 109.632 3.14885C110.949 2.31778 112.371 1.99149 112.5 1.67768C110.442 0.83412 106.641 1.51741 104.993 2.34273C101.054 4.31678 93.8617 14.2187 92.2898 15.0066C92.0892 14.8953 92.2063 14.9749 92.024 14.8252L89.2467 11.6458C90.8714 9.86275 92.5902 7.79177 94.3454 6.09986C95.5872 4.90218 97.236 3.54137 98.9883 2.61912C99.3828 2.41183 99.5411 2.32258 99.9212 2.16807C100.403 1.97134 100.767 2.01068 100.902 1.67768C99.6323 1.19208 97.2264 1.26789 95.7936 1.551C90.7476 2.54618 88.2476 7.59215 86.5557 8.61805C86.1296 8.45682 86.2947 8.54128 85.9655 8.191C84.8369 6.98852 83.7554 5.64017 82.5577 4.53463C80.98 3.0788 79.6038 2.08362 77.291 1.56059C71.5627 0.26407 68.2086 3.51449 65.7499 6.17472C63.0926 9.04799 60.8604 11.6007 58.1243 14.5536C55.7693 17.0949 53.8451 19.3933 50.4354 21.0401C50.1225 21.1917 49.1302 21.4038 48.9882 21.7378C49.9728 22.2282 52.9315 22.136 54.0812 21.876C55.705 21.5094 56.7011 21.0842 57.9122 20.1562C60.1329 18.4528 62.6933 15.1851 63.3267 14.8032C64.6818 15.3329 67.3516 20.6841 72.4504 21.8405C73.8918 22.1677 76.3419 22.3193 77.6192 21.7378C77.4714 21.4777 77.4465 21.5142 76.8121 21.2685C74.8572 20.5132 72.5224 18.6659 71.2057 17.3636C70.6913 16.854 70.4264 16.4461 69.9475 15.9481C69.4543 15.4356 69.1357 15.0594 68.6731 14.5546C68.222 14.0623 67.7806 13.6717 67.3814 13.1823C67.0435 12.7687 66.39 12.1727 66.152 11.7687C66.2537 11.3512 68.6069 9.00768 69.0608 8.39828C69.4715 8.51057 70.7038 10.0364 71.0608 10.4597C72.6625 12.356 75.41 15.1237 77.2037 17.14C78.4081 18.495 80.1364 20.2167 81.764 21.0574C83.3475 21.875 87.3283 22.6264 89.406 21.7378C89.3503 21.6121 87.4684 20.8712 86.5941 20.3472C83.7842 18.6649 82.1105 16.6448 79.9829 14.3185C78.9983 13.2418 72.3112 5.94919 72.1318 5.47511C73.436 4.79662 75.2363 4.41947 76.9378 5.07685C78.5626 5.70543 78.9656 6.49332 80.0577 7.61039C83.5817 11.2178 87.2927 15.8607 90.737 19.0987C92.8301 21.066 95.2034 22.351 99.3521 22.0516C102.509 21.8222 104.93 19.7455 106.612 17.9768C107.546 16.996 108.728 15.6937 110.025 14.2667C111.337 16.5891 112.866 18.711 114.69 19.8856C116.218 20.8702 119.086 22.0919 120.792 21.8798C120.651 21.4604 120.835 21.7205 120.397 21.3366C118.786 19.9269 118.801 20.1601 117.19 18.021C116.254 16.7772 115.301 15.2494 114.624 13.8723C114.121 12.8483 113.629 11.8531 113.14 10.8637C114.086 9.8426 115.039 8.83302 115.956 7.89541C119.046 12.1142 122.252 18.4874 127.206 20.6198C128.79 21.3021 132.857 22.1293 134.53 21.6284C134.368 21.1927 133.771 21.0862 133.207 20.7935C132.82 20.5929 132.428 20.3338 131.929 20.0036C127.068 16.7897 122.529 10.07 119.151 5.42617C121.666 4.49336 123.953 5.74286 124.538 6.31482C128.69 10.2677 133.359 16.6371 137.641 19.9202C138.852 20.8482 139.849 21.2733 141.472 21.6399C141.909 21.7387 142.608 21.8126 143.359 21.8405V22.8587H30.5691V21.995C31.2207 21.9086 31.8291 21.7867 32.3253 21.6495C36.4778 20.5046 40.5056 15.3022 43.3779 12.1017C46.5784 8.53456 50.8912 3.1431 55.1915 0.687286Z" fill="url(#paint0_linear_194_6413)"/>
<defs>
<linearGradient id="paint0_linear_194_6413" x1="9.36598" y1="5.65553" x2="143.359" y2="4.21601" gradientUnits="userSpaceOnUse">
<stop stop-color="#6EBFA0"/>
<stop offset="0.521569" stop-color="#48C1F0"/>
<stop offset="1" stop-color="#785FA5"/>
</linearGradient>
</defs>
</svg>
