<svg width="56" height="56" viewBox="0 0 56 56" fill="none" xmlns="http://www.w3.org/2000/svg">
<circle cx="28" cy="28" r="28" fill="white" fill-opacity="0.12"/>
<path d="M28.0001 38.6667C30.8291 38.6667 33.5422 37.5429 35.5426 35.5425C37.5429 33.5421 38.6667 30.829 38.6667 28C38.6667 25.171 37.5429 22.4579 35.5426 20.4575C33.5422 18.4571 30.8291 17.3333 28.0001 17.3333C25.1711 17.3333 22.458 18.4571 20.4576 20.4575C18.4572 22.4579 17.3334 25.171 17.3334 28C17.3334 30.829 18.4572 33.5421 20.4576 35.5425C22.458 37.5429 25.1711 38.6667 28.0001 38.6667ZM28.0001 41.3333C20.6361 41.3333 14.6667 35.364 14.6667 28C14.6667 20.636 20.6361 14.6667 28.0001 14.6667C35.3641 14.6667 41.3334 20.636 41.3334 28C41.3334 35.364 35.3641 41.3333 28.0001 41.3333ZM23.8534 29.56L20.5227 28.5213C19.8027 28.3013 19.7987 27.8053 20.6841 27.4493L33.6614 22.436C34.4147 22.1293 34.8414 22.5173 34.5974 23.4893L32.3881 33.916C32.2334 34.6587 31.7867 34.836 31.1667 34.4933L27.7654 31.976L26.1801 33.5067C26.0174 33.664 25.8854 33.7987 25.6347 33.832C25.3854 33.8667 25.1801 33.792 25.0294 33.3787L23.8694 29.5507L23.8534 29.5613V29.56Z" fill="white"/>
</svg>
